<svg width="24" height="24" viewBox="0 0 24 24" fill="none" xmlns="http://www.w3.org/2000/svg">
<circle cx="12" cy="12" r="12" fill="#70A0FD"/>
<path d="M10.1177 7.54343C10.1177 7.90148 10.1177 9.49962 10.1177 9.49962H8.68457V11.8917H10.1177V19H13.0618V11.8919H15.0374C15.0374 11.8919 15.2224 10.7449 15.3121 9.4908C15.0549 9.4908 13.0729 9.4908 13.0729 9.4908C13.0729 9.4908 13.0729 8.09918 13.0729 7.85526C13.0729 7.61081 13.3939 7.282 13.7112 7.282C14.0278 7.282 14.6962 7.282 15.3152 7.282C15.3152 6.95632 15.3152 5.83102 15.3152 4.79175C14.4888 4.79175 13.5487 4.79175 13.1343 4.79175C10.045 4.79158 10.1177 7.186 10.1177 7.54343Z" fill="white"/>
</svg>
