<svg width="24" height="24" viewBox="0 0 24 24" fill="none" xmlns="http://www.w3.org/2000/svg">
<circle cx="12" cy="12" r="12" fill="#CF141F"/>
<path d="M12.0196 7.86364C13.3812 7.86364 14.6129 8.56442 15.3187 9.53003L16.9918 7.83994C15.9912 6.53486 14.0653 5.5 12.0196 5.5C8.43779 5.5 5.5 8.4073 5.5 12C5.5 15.5927 8.43779 18.5 12.0196 18.5C14.9889 18.5 17.4867 16.5028 18.2525 13.7727C18.4175 13.2054 18.5 12.6145 18.5 12V11.4091H12.6088V13.7723H15.7311C15.0831 15.1669 13.6574 16.1364 12.0196 16.1364C9.74568 16.1364 7.8565 14.2808 7.8565 12C7.8565 9.71915 9.74568 7.86364 12.0196 7.86364Z" fill="white"/>
</svg>
