<svg width="360" height="272" viewBox="0 0 360 272" fill="none" xmlns="http://www.w3.org/2000/svg">
<path opacity="0.24" d="M90.4354 220.939C88.8881 221.251 87.241 221.658 86.199 222.815C84.7329 224.491 85.0635 227.193 86.4049 228.976C87.7463 230.758 89.8364 231.771 91.9078 232.566C101.666 236.318 112.384 236.35 122.828 236.362C143.91 236.362 165.791 236.237 184.882 227.262C169.453 221.289 155.084 221.583 139.025 220.445C122.317 219.312 107.15 217.511 90.4354 220.939Z" fill="#FFAE58"/>
<path d="M217.188 123.269L207.268 128.717L193.205 163.535L222.978 147.192L217.188 123.269Z" fill="#FFAE58"/>
<path d="M259.957 123.269L269.877 128.717L283.939 163.535L254.167 147.192L259.957 123.269Z" fill="#FFAE58"/>
<path d="M217.188 123.269L207.268 128.717L193.205 163.535L222.978 147.192L217.188 123.269Z" fill="url(#paint0_linear)"/>
<path d="M259.957 123.269L269.877 128.717L283.939 163.535L254.167 147.192L259.957 123.269Z" fill="url(#paint1_linear)"/>
<path d="M142.282 218.687C142.089 219.363 142.13 220.085 142.397 220.735C142.665 221.385 143.143 221.926 143.754 222.271C144.362 222.543 145.001 222.741 145.657 222.859C147.669 223.353 149.532 224.33 151.085 225.705C151.338 225.872 151.544 226.101 151.684 226.37C151.823 226.639 151.892 226.94 151.884 227.243C151.74 227.937 150.929 228.231 150.243 228.394C148.8 228.787 147.326 229.057 145.838 229.201C142.812 229.407 139.817 228.575 136.897 227.731C135.787 227.412 134.115 226.93 133.859 225.636C133.807 224.744 133.849 223.848 133.984 222.965L134.177 218.462" fill="#A8518A"/>
<path d="M125.043 224.06C124.911 224.403 124.88 224.778 124.955 225.139C125.031 225.5 125.209 225.831 125.468 226.092C125.993 226.607 126.592 227.039 127.246 227.374C128.971 228.424 130.493 229.778 131.738 231.371C132.312 232.103 132.848 233.06 132.487 233.917C132.294 234.314 131.988 234.645 131.607 234.867C130.361 235.594 128.926 235.925 127.489 235.818C123.864 235.724 118.505 233.454 117.457 229.52C117.126 228.3 117.488 226.63 117.538 225.373L117.669 222.34" fill="#A8518A"/>
<path d="M145.589 149.119L142.768 219.794C141.68 220.596 140.375 221.047 139.025 221.089C136.423 221.239 135.955 221.426 134.084 219.719L125.911 145.597L145.589 145.185V149.119Z" fill="#A8518A"/>
<path d="M145.589 149.119L142.768 219.794C141.68 220.596 140.375 221.047 139.025 221.089C136.423 221.239 135.955 221.426 134.084 219.719L125.911 145.597L145.589 145.185V149.119Z" fill="url(#paint2_linear)"/>
<path d="M134.47 155.467L126.36 224.203C126.36 224.203 125.187 225.411 121.992 225.454C118.368 225.498 118.037 225.004 117.226 223.165L115.622 144.322L134.246 147.505L134.47 155.467Z" fill="#A8518A"/>
<path d="M134.47 155.467L126.36 224.203C126.36 224.203 125.187 225.411 121.992 225.454C118.368 225.498 118.037 225.004 117.226 223.165L115.622 144.322L134.246 147.505L134.47 155.467Z" fill="url(#paint3_linear)"/>
<path d="M136.997 148.587C134.456 149.449 131.838 150.064 129.18 150.426C125.655 150.789 121.961 149.081 119.197 148.937C115.51 148.75 115.41 148.631 115.41 146.223C115.41 145.01 146.069 142.101 146.069 142.101C146.069 142.101 145.925 144.322 145.932 146.373C145.932 147.912 145.276 147.824 142.488 147.987C139.699 148.149 139.162 147.299 136.997 148.587Z" fill="#F2FBFF"/>
<path d="M124.9 94.3234C124.9 94.3234 119.759 95.6619 116.09 98.3388C113.826 99.99 115.392 146.223 115.392 146.223C115.616 146.185 125.468 150.188 134.995 148.543C143.105 147.142 146.032 143.327 146.032 143.327C146.032 143.327 146.761 98.9642 145.183 97.1442C144.484 96.3311 136.767 93.4728 136.767 93.4728C136.767 93.4728 133.397 98.5515 124.9 94.3234Z" fill="#FFAE58"/>
<path d="M124.9 94.3234C124.9 94.3234 119.759 95.6619 116.09 98.3388C113.826 99.99 115.392 146.223 115.392 146.223C115.616 146.185 125.468 150.188 134.995 148.543C143.105 147.142 146.032 143.327 146.032 143.327C146.032 143.327 146.761 98.9642 145.183 97.1442C144.484 96.3311 136.767 93.4728 136.767 93.4728C136.767 93.4728 133.397 98.5515 124.9 94.3234Z" fill="url(#paint4_linear)"/>
<path d="M126.584 84.0536L124.9 94.3234C124.9 94.3234 128.643 99.8524 133.429 99.0268C138.214 98.2012 137.01 95.9746 137.01 95.9746L136.386 87.2997C136.386 87.2997 132.087 88.0565 126.584 84.0536Z" fill="white"/>
<path d="M125.992 87.6562L126.616 84.0536C132.118 88.0565 134.976 86.3553 134.976 86.3553L136.305 91.0148C135.557 91.7991 134.55 92.2838 133.472 92.3783C130.802 92.5659 128.132 90.4707 125.992 87.6562Z" fill="#B58B81"/>
<path d="M125.112 93.0851L120.121 95.4367C120.121 95.4367 127.982 103.768 130.378 103.605C130.378 103.605 132.642 99.3895 134.745 98.7266L125.112 93.0851Z" fill="#F2FBFF"/>
<path d="M136.673 94.5173C136.261 96.0101 135.616 97.4285 134.764 98.7203C135.232 98.9017 138.283 101.034 138.333 102.473C138.333 102.473 141.365 95.5931 140.111 94.5111C139.062 93.9758 137.985 93.4977 136.885 93.0788L136.673 94.5173Z" fill="#F2FBFF"/>
<path d="M118.118 97.1192C118.118 97.1192 110.4 99.621 109.527 111.974C108.728 123.232 106.719 131.406 108.354 134.74C110.481 139.087 125.361 139.806 125.361 139.806C125.721 137.642 125.63 135.428 125.093 133.301L116.939 130.036C116.939 130.036 118.249 99.0455 118.118 97.1192Z" fill="#FFAE58"/>
<path d="M122.273 76.5733C122.679 82.2711 128.512 92.3408 134.19 91.9342C139.867 91.5277 141.521 79.738 141.115 74.0402C140.71 68.3424 137.521 65.1089 131.831 65.5154C130.479 65.6121 129.16 65.9749 127.948 66.583C126.736 67.1911 125.655 68.0327 124.767 69.0595C123.88 70.0864 123.203 71.2785 122.775 72.5677C122.347 73.8569 122.176 75.218 122.273 76.5733Z" fill="white"/>
<path d="M135.656 138.911C135.519 137.823 136.03 136.779 136.18 134.927C136.33 133.076 135.132 132.594 133.379 132.426C132.898 132.369 132.524 132.313 132.206 132.263C130.571 132.657 131.875 134.646 131.962 136.016C132.05 137.385 131.744 139.349 132.218 139.768C132.418 139.95 133.921 139.868 135.662 139.643C135.69 139.4 135.688 139.154 135.656 138.911Z" fill="#B58B81"/>
<path d="M136.735 86.0488C136.735 86.0488 136.579 85.9049 135.388 85.9925C133.973 86.0649 132.554 85.964 131.164 85.6923C130.247 85.4609 129.81 85.6047 129.916 86.8368C130.022 88.069 130.983 89.1635 133.391 89.2948C136.093 89.4387 137.228 88.4192 137.44 87.1996C137.59 86.3177 137.035 86.0238 136.735 86.0488Z" fill="white"/>
<path d="M126.36 133.495C127.373 133.279 128.371 132.999 129.348 132.657C130.633 132.169 131.039 132.457 132.923 132.657C134.807 132.857 136.099 133.339 135.937 135.234C135.774 137.129 135.232 138.192 135.375 139.299C135.519 140.406 135.176 141.357 133.503 141.394C131.831 141.432 126.36 139.743 126.36 139.743" fill="white"/>
<path d="M124.538 133.001H127.402C127.402 133.001 128.649 137.141 127.027 140.012L123.864 139.881C123.864 139.881 124.937 135.853 124.538 133.001Z" fill="#F2FBFF"/>
<path d="M125.985 135.009C126.333 135.009 126.616 134.709 126.616 134.339C126.616 133.97 126.333 133.67 125.985 133.67C125.637 133.67 125.355 133.97 125.355 134.339C125.355 134.709 125.637 135.009 125.985 135.009Z" fill="#D2ECD5"/>
<path d="M137.147 79.2627C137.053 78.9006 137.032 78.5235 137.085 78.1532C137.137 77.7828 137.262 77.4266 137.453 77.1049C137.64 76.7817 137.89 76.4994 138.188 76.2749C138.486 76.0503 138.826 75.8881 139.187 75.7978C139.554 75.6844 139.94 75.6468 140.321 75.6871C140.703 75.7275 141.072 75.8449 141.407 76.0324C141.742 76.2198 142.036 76.4734 142.27 76.7778C142.505 77.0822 142.675 77.4312 142.772 77.8035C142.868 78.1758 142.888 78.5638 142.83 78.9441C142.773 79.3244 142.639 79.689 142.437 80.0159C142.235 80.3429 141.969 80.6254 141.655 80.8464C141.341 81.0674 140.985 81.2223 140.61 81.3017H140.51C139.795 81.4623 139.046 81.3399 138.42 80.9599C137.793 80.5799 137.337 79.9718 137.147 79.2627ZM139.356 76.4607C138.803 76.6049 138.329 76.9631 138.039 77.4567C137.749 77.9503 137.666 78.539 137.808 79.0938C137.914 79.5054 138.138 79.8766 138.453 80.1613C138.768 80.4459 139.159 80.6314 139.578 80.6945C139.998 80.7576 140.426 80.6956 140.81 80.5162C141.195 80.3368 141.518 80.048 141.739 79.6857C141.961 79.3234 142.071 78.9038 142.056 78.4791C142.042 78.0544 141.903 77.6435 141.656 77.2975C141.41 76.9516 141.068 76.686 140.672 76.5339C140.276 76.3817 139.844 76.3498 139.431 76.442L139.356 76.4607Z" fill="#A8518A"/>
<path d="M131.351 81.3455C130.986 81.1307 130.666 80.8454 130.411 80.5062C130.156 80.167 129.971 79.7805 129.866 79.3691C129.708 78.7513 129.736 78.1004 129.946 77.4986C130.157 76.8967 130.541 76.3709 131.049 75.9875C131.557 75.6041 132.168 75.3803 132.803 75.3444C133.438 75.3085 134.07 75.462 134.618 75.7857C135.166 76.1093 135.606 76.5885 135.883 77.1628C136.16 77.7371 136.261 78.3807 136.173 79.0123C136.085 79.644 135.812 80.2354 135.389 80.7119C134.967 81.1883 134.412 81.5285 133.797 81.6895H133.678C132.887 81.8777 132.054 81.7545 131.351 81.3455ZM132.349 76.098C132.023 76.1808 131.717 76.3279 131.448 76.5307C131.18 76.7334 130.954 76.9877 130.785 77.2788C130.615 77.5699 130.505 77.8919 130.461 78.2261C130.417 78.5603 130.439 78.8999 130.527 79.2252C130.653 79.7084 130.917 80.1439 131.287 80.4777C131.658 80.8115 132.118 81.0288 132.61 81.1025C133.103 81.1762 133.606 81.1031 134.057 80.8923C134.509 80.6814 134.888 80.3422 135.149 79.9168C135.41 79.4913 135.54 78.9985 135.523 78.4995C135.506 78.0006 135.344 77.5176 135.055 77.1106C134.767 76.7036 134.365 76.3906 133.901 76.2106C133.436 76.0305 132.929 75.9914 132.443 76.098H132.349Z" fill="#A8518A"/>
<path d="M137.072 78.5872L137.727 78.3933C137.685 78.2612 137.614 78.1402 137.519 78.0394C137.424 77.9387 137.308 77.8608 137.178 77.8117C136.889 77.7322 136.586 77.7173 136.291 77.7681C135.995 77.8189 135.715 77.9341 135.469 78.1056L135.793 78.7311C136.461 78.3683 136.785 78.4059 136.916 78.4621C136.982 78.4822 137.038 78.527 137.072 78.5872Z" fill="#A8518A"/>
<path d="M130.134 78.4058L130.109 77.7241L126.216 77.8367L126.247 78.5184L130.134 78.4058Z" fill="#A8518A"/>
<path d="M145.183 97.1442C145.183 97.1442 149.494 109.19 152.177 118.953C154.86 128.717 162.783 119.122 162.783 119.122C162.783 119.122 167.151 118.953 167.313 121.624C167.475 124.295 164.817 132.882 157.243 133.07C149.669 133.257 141.645 123.307 141.645 123.307L145.183 97.1442Z" fill="#FFAE58"/>
<path d="M156.781 138.999L141.377 138.774C140.978 138.796 140.579 138.725 140.213 138.565C139.847 138.404 139.523 138.16 139.268 137.852C139.013 137.543 138.834 137.179 138.745 136.788C138.656 136.398 138.66 135.992 138.757 135.603L144.64 108.302C144.87 107.423 145.383 106.645 146.099 106.088C146.816 105.532 147.696 105.228 148.602 105.225L164.006 105.45C164.406 105.426 164.805 105.497 165.172 105.657C165.539 105.816 165.863 106.061 166.119 106.369C166.374 106.678 166.553 107.043 166.641 107.434C166.729 107.826 166.724 108.232 166.627 108.621L160.749 135.922C160.518 136.801 160.004 137.58 159.287 138.136C158.569 138.693 157.689 138.996 156.781 138.999Z" fill="#FFAE58"/>
<path d="M156.781 138.999L141.377 138.774C140.978 138.796 140.579 138.725 140.213 138.565C139.847 138.404 139.523 138.16 139.268 137.852C139.013 137.543 138.834 137.179 138.745 136.788C138.656 136.398 138.66 135.992 138.757 135.603L144.64 108.302C144.87 107.423 145.383 106.645 146.099 106.088C146.816 105.532 147.696 105.228 148.602 105.225L164.006 105.45C164.406 105.426 164.805 105.497 165.172 105.657C165.539 105.816 165.863 106.061 166.119 106.369C166.374 106.678 166.553 107.043 166.641 107.434C166.729 107.826 166.724 108.232 166.627 108.621L160.749 135.922C160.518 136.801 160.004 137.58 159.287 138.136C158.569 138.693 157.689 138.996 156.781 138.999Z" fill="url(#paint5_linear)"/>
<path d="M156.887 139.162L142.151 138.943C141.77 138.962 141.389 138.891 141.04 138.737C140.691 138.582 140.383 138.347 140.14 138.052C139.898 137.757 139.728 137.408 139.643 137.035C139.559 136.662 139.563 136.274 139.655 135.903L145.27 109.778C145.492 108.937 145.985 108.192 146.672 107.66C147.359 107.127 148.202 106.836 149.07 106.832L163.813 107.051C164.194 107.031 164.575 107.101 164.925 107.255C165.275 107.409 165.584 107.643 165.826 107.939C166.069 108.235 166.239 108.584 166.323 108.957C166.407 109.331 166.402 109.719 166.308 110.091L160.693 136.216C160.471 137.058 159.977 137.804 159.289 138.336C158.601 138.869 157.757 139.159 156.887 139.162Z" fill="#FFAE58"/>
<path d="M166.814 120.379C166.802 119.774 166.673 119.177 166.433 118.622C166.269 118.058 165.938 117.556 165.485 117.183C164.983 116.9 164.413 116.762 163.838 116.783C163.258 116.783 162.671 116.783 162.091 116.783C161.451 116.773 160.815 116.887 160.219 117.121C159.367 117.586 158.704 118.336 158.347 119.241C157.549 120.949 157.38 123.119 158.522 124.614C159.026 125.207 159.62 125.718 160.281 126.127C160.999 126.621 161.841 127.141 162.684 126.909C163.084 126.768 163.45 126.542 163.757 126.246L165.004 125.208C165.43 124.891 165.79 124.493 166.065 124.038C166.294 123.451 166.404 122.824 166.39 122.193C166.561 121.596 166.703 120.991 166.814 120.379Z" fill="white"/>
<path d="M140.354 66.6537C139.553 64.7504 138.383 63.026 136.91 61.5814L136.791 62.7259C134.453 61.6554 131.929 61.052 129.361 60.9497L129.585 61.7502C128.651 61.5162 127.754 61.152 126.921 60.6682L126.116 62.1067C125.57 61.6718 124.97 61.3082 124.332 61.0247L123.29 64.7774C122.996 64.6195 122.723 64.424 122.479 64.1957C122.205 64.0081 121.762 63.9518 121.587 64.2333C121.519 64.3687 121.491 64.5204 121.506 64.6711V66.2847L119.971 65.7343C119.906 65.7036 119.834 65.6877 119.762 65.6877C119.69 65.6877 119.618 65.7036 119.553 65.7343C119.502 65.7767 119.46 65.8291 119.43 65.8883C119.4 65.9474 119.382 66.0121 119.378 66.0783C118.261 71.6698 120.626 78.9437 124.301 83.2906C124.442 82.6209 124.372 81.9236 124.101 81.2954C123.795 80.4948 122.853 80.0445 123.016 79.2002C123.059 78.7732 123.258 78.3774 123.575 78.0887C123.891 77.8 124.303 77.639 124.731 77.6365C125.923 77.7741 125.48 78.212 126.329 79.0626C126.628 77.4051 125.911 74.6845 126.428 73.0896C126.6 72.6699 126.867 72.2963 127.208 71.9985C127.549 71.7008 127.955 71.4871 128.394 71.3747C128.832 71.2623 129.29 71.2542 129.732 71.351C130.174 71.4479 130.588 71.647 130.939 71.9325C130.902 70.8692 132.15 70.1875 133.21 70.225C134.271 70.2626 135.475 70.6691 136.598 70.8067C137.553 70.9193 138.532 71.5885 139.449 71.576C141.808 71.5385 140.859 67.9859 140.354 66.6537Z" fill="#A8518A"/>
<path opacity="0.24" d="M238.051 215.047C247.537 215.047 255.227 214.109 255.227 212.952C255.227 211.795 247.537 210.856 238.051 210.856C228.565 210.856 220.875 211.795 220.875 212.952C220.875 214.109 228.565 215.047 238.051 215.047Z" fill="#FFAE58"/>
<path opacity="0.24" d="M237.009 228.713C252.394 228.713 264.867 227.192 264.867 225.317C264.867 223.441 252.394 221.921 237.009 221.921C221.624 221.921 209.152 223.441 209.152 225.317C209.152 227.192 221.624 228.713 237.009 228.713Z" fill="#FFAE58"/>
<path d="M237.527 204.665C261.627 204.665 281.163 202.282 281.163 199.342C281.163 196.402 261.627 194.019 237.527 194.019C213.428 194.019 193.891 196.402 193.891 199.342C193.891 202.282 213.428 204.665 237.527 204.665Z" stroke="white" stroke-width="4.36952" stroke-miterlimit="10"/>
<path d="M238.5 34.8686C238.5 34.8686 191.614 62.4695 219.159 148.55H257.38C257.38 148.55 285.755 80.0508 238.5 34.8686Z" fill="#FFAE58"/>
<path d="M238.5 34.8686C238.5 34.8686 191.614 62.4695 219.159 148.55H257.38C257.38 148.55 285.755 80.0508 238.5 34.8686Z" fill="url(#paint6_linear)"/>
<path d="M237.702 103.736C244.79 103.736 250.536 97.9763 250.536 90.871C250.536 83.7656 244.79 78.0056 237.702 78.0056C230.614 78.0056 224.868 83.7656 224.868 90.871C224.868 97.9763 230.614 103.736 237.702 103.736Z" fill="#FFAE58"/>
<path d="M222.366 178.79L227.083 170.177C227.917 180.749 230.507 191.107 234.745 200.824C242.362 193.225 244.272 181.754 245.744 171.084C247.907 176.321 249.839 181.644 251.54 187.052C254.997 180.178 256.125 172.361 254.753 164.786L257.686 169.79C259.69 162.532 258.825 154.778 255.271 148.143C249.215 148.593 243.146 148.891 237.065 149.037C234.154 149.112 231.23 149.15 228.293 149.15C226.366 149.15 222.815 148.393 221.056 149.375C217.675 151.251 218.91 159.338 219.122 162.66C219.297 165.406 219.658 168.137 220.201 170.834C220.457 172.104 222.847 177.914 222.366 178.79Z" fill="#FFAE58"/>
<path d="M222.366 178.79L227.083 170.177C227.917 180.749 230.507 191.107 234.745 200.824C242.362 193.225 244.272 181.754 245.744 171.084C247.907 176.321 249.839 181.644 251.54 187.052C254.997 180.178 256.125 172.361 254.753 164.786L257.686 169.79C259.69 162.532 258.825 154.778 255.271 148.143C249.215 148.593 243.146 148.891 237.065 149.037C234.154 149.112 231.23 149.15 228.293 149.15C226.366 149.15 222.815 148.393 221.056 149.375C217.675 151.251 218.91 159.338 219.122 162.66C219.297 165.406 219.658 168.137 220.201 170.834C220.457 172.104 222.847 177.914 222.366 178.79Z" fill="url(#paint7_linear)"/>
<path d="M228.855 167.976L231.725 162.722C232.237 169.169 233.819 175.485 236.404 181.41C241.046 176.776 242.213 169.777 243.111 163.273C244.434 166.471 245.613 169.719 246.649 173.017C248.757 168.822 249.444 164.054 248.608 159.432L250.392 162.497C251.624 158.06 251.097 153.318 248.92 149.263C245.226 149.538 241.526 149.721 237.82 149.813C236.036 149.855 234.252 149.876 232.467 149.876C231.294 149.876 229.129 149.413 228.056 150.013C225.991 151.17 226.74 156.092 226.871 158.144C226.981 159.825 227.202 161.496 227.532 163.147C227.688 163.898 229.142 167.444 228.855 167.976Z" fill="url(#paint8_linear)"/>
<path d="M228.917 43.6561C228.917 43.6561 238.638 46.9397 246.543 43.6561L238.694 35.1C238.507 34.896 238.278 34.7347 238.023 34.6271C237.768 34.5196 237.493 34.4682 237.217 34.4765C236.941 34.4848 236.669 34.5526 236.421 34.6753C236.174 34.798 235.955 34.9727 235.78 35.1876L228.917 43.6561Z" fill="#FFAE58"/>
<path d="M228.917 43.6561C228.917 43.6561 238.638 46.9397 246.543 43.6561L238.6 34.9999C238.425 34.8087 238.21 34.6576 237.971 34.5567C237.732 34.4558 237.475 34.4076 237.215 34.4153C236.956 34.4231 236.702 34.4865 236.469 34.6014C236.237 34.7163 236.031 34.8799 235.868 35.0812L228.917 43.6561Z" fill="url(#paint9_linear)"/>
<path d="M254.329 179.909C260.867 180.535 265.035 181.554 265.035 182.668C265.035 184.644 251.933 186.245 235.712 186.245C219.49 186.245 206.388 184.644 206.388 182.668C206.388 181.035 215.397 179.653 227.694 179.228" stroke="white" stroke-width="2.93412" stroke-miterlimit="10"/>
<defs>
<linearGradient id="paint0_linear" x1="212.284" y1="114.037" x2="198.585" y2="248.483" gradientUnits="userSpaceOnUse">
<stop stop-color="#010101" stop-opacity="0"/>
<stop offset="0.95" stop-color="#010101"/>
</linearGradient>
<linearGradient id="paint1_linear" x1="12683.4" y1="7860.41" x2="11504" y2="16443.7" gradientUnits="userSpaceOnUse">
<stop stop-color="#010101" stop-opacity="0"/>
<stop offset="0.95" stop-color="#010101"/>
</linearGradient>
<linearGradient id="paint2_linear" x1="4943.47" y1="25940.9" x2="143.188" y2="24644.6" gradientUnits="userSpaceOnUse">
<stop stop-color="#010101" stop-opacity="0"/>
<stop offset="0.95" stop-color="#A8518A"/>
</linearGradient>
<linearGradient id="paint3_linear" x1="4397.93" y1="26742.9" x2="1730.22" y2="26531.1" gradientUnits="userSpaceOnUse">
<stop stop-color="#010101" stop-opacity="0"/>
<stop offset="0.95" stop-color="#A8518A"/>
</linearGradient>
<linearGradient id="paint4_linear" x1="6510.21" y1="11187.5" x2="5050.3" y2="21795.5" gradientUnits="userSpaceOnUse">
<stop stop-color="#010101" stop-opacity="0"/>
<stop offset="0.95" stop-color="#010101"/>
</linearGradient>
<linearGradient id="paint5_linear" x1="6767.94" y1="5809.32" x2="7001.46" y2="11221.9" gradientUnits="userSpaceOnUse">
<stop stop-color="#010101" stop-opacity="0"/>
<stop offset="0.95" stop-color="#010101"/>
</linearGradient>
<linearGradient id="paint6_linear" x1="204.105" y1="93.9857" x2="256.719" y2="91.2659" gradientUnits="userSpaceOnUse">
<stop stop-color="white" stop-opacity="0"/>
<stop offset="0.95" stop-color="white"/>
</linearGradient>
<linearGradient id="paint7_linear" x1="15205.3" y1="17394.4" x2="15569.2" y2="8147.53" gradientUnits="userSpaceOnUse">
<stop stop-color="#010101" stop-opacity="0"/>
<stop offset="0.95" stop-color="#A8518A"/>
</linearGradient>
<linearGradient id="paint8_linear" x1="9388.99" y1="9839.93" x2="9523.94" y2="6398.16" gradientUnits="userSpaceOnUse">
<stop stop-color="#010101" stop-opacity="0"/>
<stop offset="0.95" stop-color="#A8518A"/>
</linearGradient>
<linearGradient id="paint9_linear" x1="6960.03" y1="938.962" x2="6285.59" y2="745.757" gradientUnits="userSpaceOnUse">
<stop stop-color="#010101" stop-opacity="0"/>
<stop offset="0.95" stop-color="#A8518A"/>
</linearGradient>
</defs>
</svg>
