<svg width="338" height="123" viewBox="0 0 338 123" fill="none" xmlns="http://www.w3.org/2000/svg">
<path fill-rule="evenodd" clip-rule="evenodd" d="M44.4945 98.5043C63.229 88.0805 73.637 70.8814 78.3206 49.7733C80.4022 40.9132 81.443 31.2712 81.1828 22.1505C68.433 19.8051 54.9025 13.2903 43.9741 6.51487L43.7139 6.25427L43.4537 6.51487C32.5253 13.2903 18.9949 19.8051 6.24512 22.1505C6.24512 31.2712 7.02572 40.9132 9.10732 49.7733C13.7909 70.8814 24.4591 88.0805 43.1935 98.5043L43.7139 98.7649L44.4945 98.5043Z" fill="#FEFEFE"/>
<path fill-rule="evenodd" clip-rule="evenodd" d="M44.4945 98.5043C63.229 88.0805 73.637 70.8814 78.3206 49.7733C80.4022 40.9132 81.443 31.2712 81.1828 22.1505C68.433 19.8051 54.9025 13.2903 43.9741 6.51487L43.7139 6.25427L43.4537 6.51487C32.5253 13.2903 18.9949 19.8051 6.24512 22.1505C6.24512 31.2712 7.02572 40.9132 9.10732 49.7733C13.7909 70.8814 24.4591 88.0805 43.1935 98.5043L43.7139 98.7649L44.4945 98.5043Z" fill="#F58634"/>
<path fill-rule="evenodd" clip-rule="evenodd" d="M74.6781 26.32C75.7189 26.0594 76.4995 25.7988 77.2801 25.7988C77.2801 33.0954 76.7597 40.6526 75.1985 47.6887C75.1985 47.6887 74.9383 47.6887 74.6781 47.6887L43.9745 38.0467L13.0106 47.6887C12.7504 47.6887 12.4902 47.9492 12.23 47.9492C10.929 40.9132 10.1484 33.356 10.1484 25.7988C10.929 25.7988 11.9698 25.7988 13.0106 26.32L43.9745 35.962L74.6781 26.32Z" fill="url(#paint0_radial)"/>
<path fill-rule="evenodd" clip-rule="evenodd" d="M56.7239 84.4322L54.3821 55.2458H57.2443C57.7647 55.2458 58.2851 54.7246 58.2851 53.9428V46.9068C58.2851 46.125 57.7647 45.6038 57.2443 45.6038H53.8617H34.0865H30.7039C30.1835 45.6038 29.6631 46.125 29.6631 46.9068V53.9428C29.6631 54.7246 30.1835 55.2458 30.7039 55.2458H33.5661L31.2243 84.9534C34.6069 88.0805 38.7701 91.2076 43.1935 93.553L43.7139 93.8135L44.2343 93.553C48.9179 90.947 53.0811 88.0805 56.7239 84.4322ZM42.6731 53.161H45.0149C46.3159 53.161 47.0965 53.9428 47.0965 54.7246V59.4152C47.0965 60.197 46.3159 60.9788 45.0149 60.9788H42.6731C41.6323 60.9788 40.8517 60.197 40.8517 59.4152V54.7246C40.8517 53.9428 41.6323 53.161 42.6731 53.161ZM42.6731 66.1907H45.0149C46.3159 66.1907 47.0965 66.9724 47.0965 67.7542V72.4449C47.0965 73.2267 46.3159 73.7479 45.0149 73.7479H42.6731C41.6323 73.7479 40.8517 73.2267 40.8517 72.4449V67.7542C40.8517 66.9724 41.6323 66.1907 42.6731 66.1907ZM42.6731 79.2203H45.0149C46.3159 79.2203 47.0965 80.0021 47.0965 80.7839V85.4746C47.0965 86.2563 46.3159 86.7775 45.0149 86.7775H42.6731C41.6323 86.7775 40.8517 86.2563 40.8517 85.4746V80.7839C40.8517 80.0021 41.6323 79.2203 42.6731 79.2203ZM55.9433 28.9258C55.9433 18.2415 32.0049 18.2415 31.7447 28.9258H55.9433ZM43.9741 32.3136C41.3721 32.3136 39.2905 34.3983 39.2905 37.0042C39.2905 39.6102 41.3721 41.9555 43.9741 41.9555C46.5761 41.9555 48.6577 39.6102 48.6577 37.0042C48.6577 34.3983 46.5761 32.3136 43.9741 32.3136Z" fill="#FEFEFE"/>
<path d="M170.431 59.4153C170.431 61.7607 169.911 63.8454 168.61 65.409C167.049 67.2331 165.227 68.0149 162.886 68.0149H98.6162V54.4641H150.136C150.916 54.4641 151.957 53.9429 152.998 53.4217C154.039 52.6399 154.559 51.5975 154.559 50.2946C154.559 49.7734 154.299 48.9916 153.779 48.2098C153.518 47.6886 152.738 47.1674 151.957 46.6463C151.177 46.3857 150.136 46.1251 149.095 46.1251H110.325C108.244 46.1251 106.682 45.6039 105.121 44.8221C103.82 43.7797 102.779 42.7374 101.999 41.4344C101.218 40.1314 100.698 39.0891 100.698 38.3073V20.3263C100.698 18.7628 101.478 17.1992 103.3 15.3751C104.861 13.2903 107.203 12.5085 109.805 12.5085H167.569V25.5382H119.953C118.912 25.5382 118.131 26.0594 117.611 26.8412C117.09 27.623 116.83 28.6653 116.83 29.4471C116.83 30.2289 117.09 31.2713 117.871 32.053C118.652 33.0954 119.953 33.6166 121.254 33.6166H160.544C163.926 33.6166 166.528 34.3984 168.09 36.2225C169.651 38.0467 170.431 40.392 170.431 43.2585V59.4153ZM249.532 53.1611C249.532 55.767 248.492 58.1124 246.67 60.4577C244.849 62.803 242.767 64.6272 240.165 65.9302C237.563 67.2331 235.482 68.0149 233.66 68.0149H179.018V33.8772H195.15V54.4641H224.293C227.415 54.4641 229.757 53.4217 231.318 51.8581C232.88 50.034 233.66 47.6886 233.66 45.0827V33.8772C233.66 32.3136 233.14 30.7501 232.359 29.4471C231.578 28.1441 230.538 27.3624 229.237 26.5806C227.675 25.7988 225.854 25.5382 223.772 25.5382H178.758V12.5085H232.619C235.742 12.5085 238.604 13.2903 241.206 15.1145C243.808 16.9386 245.89 19.284 247.451 21.6293C248.752 24.2352 249.532 26.5806 249.532 28.4047V53.1611ZM331.495 37.7861C331.495 40.1314 330.975 42.4768 329.674 44.0403C328.373 45.6039 326.031 46.6463 323.169 46.6463L272.43 46.3857V49.2522C272.43 50.5552 272.95 51.8581 273.991 53.1611C275.032 54.2035 276.333 54.9852 277.374 54.9852H330.715V68.0149H274.512C270.869 68.0149 267.486 66.9725 264.884 65.1484C262.022 63.0636 259.94 60.7183 258.639 58.1124C257.078 55.5064 256.558 53.4217 256.558 51.5975V27.623C256.558 25.7988 256.818 23.9746 257.859 22.1505C258.9 20.3263 260.461 18.5022 262.022 17.1992C263.583 15.6357 265.405 14.5933 267.226 13.5509C269.047 12.7691 270.869 12.5085 272.43 12.5085H318.485C319.786 12.5085 321.087 12.7691 322.649 13.5509C324.47 14.3327 325.771 15.3751 327.072 16.678C328.633 17.981 329.674 19.0234 330.455 20.5869C331.235 21.8899 331.495 23.1929 331.495 24.4958V37.7861ZM315.883 29.7077C315.883 28.4047 315.623 27.623 314.582 26.8412C313.542 26.0594 312.501 25.7988 311.2 25.7988L277.894 25.5382C276.593 25.5382 275.292 26.32 274.251 27.623C272.95 28.6653 272.43 29.9683 272.43 31.5319V33.8772H315.883V29.7077Z" fill="white"/>
<path d="M134.003 103.716C134.003 104.759 133.483 105.801 132.963 106.583C132.182 107.364 131.401 107.886 130.1 107.886H98.6162V101.11H123.856C124.376 101.11 124.896 101.11 125.157 100.589C125.677 100.328 125.937 99.8073 125.937 99.2861C125.937 98.7649 125.937 98.5043 125.677 98.2437C125.417 97.9831 125.157 97.7225 124.636 97.4619C124.376 97.2014 123.856 97.2014 123.335 97.2014H104.08C103.3 97.2014 102.519 96.9408 101.739 96.4196C100.958 95.8984 100.438 95.3772 100.177 94.856C99.657 94.3348 99.3968 93.8136 99.3968 93.2925V84.4323C99.3968 83.6505 99.9172 82.8687 100.698 81.8264C101.739 81.0446 102.779 80.5234 104.08 80.5234H132.442V87.0382H109.024C108.504 87.0382 108.244 87.2988 107.723 87.5594C107.463 88.0806 107.463 88.6018 107.463 88.8624C107.463 89.3836 107.723 89.6441 107.983 90.1653C108.504 90.6865 109.024 90.9471 109.805 90.9471H129.06C130.621 90.9471 131.922 91.4683 132.702 92.2501C133.483 93.0319 134.003 94.3348 134.003 95.6378V103.716ZM189.166 107.886H181.36V90.9471C181.36 90.6865 181.36 90.4259 181.1 90.1653C180.839 89.9047 180.579 89.9047 180.319 89.9047C179.799 89.9047 179.538 90.1653 179.278 90.6865L169.651 107.886H162.365L152.478 90.4259C152.478 90.4259 152.217 90.1653 152.217 89.9047C151.957 89.9047 151.957 89.6441 151.697 89.6441C151.437 89.3836 151.437 89.3836 151.177 89.3836C150.916 89.3836 150.656 89.6441 150.656 89.9047C150.396 90.1653 150.396 90.4259 150.396 90.6865V107.886H142.59V86.7776C142.59 85.7352 142.85 84.9535 143.371 83.9111C143.891 83.1293 144.411 82.3475 145.192 81.8264C145.973 81.3052 146.753 80.784 147.534 80.5234C148.314 80.0022 149.095 80.0022 149.615 80.0022C151.437 80.0022 152.998 80.5234 154.299 81.3052C155.34 82.3475 156.641 83.9111 157.942 85.9958L165.748 100.068L173.814 85.9958C174.855 83.9111 175.896 82.6081 177.197 81.5658C178.498 80.5234 180.059 80.0022 181.88 80.0022C182.921 80.0022 183.962 80.2628 184.742 80.5234C185.783 81.0446 186.564 81.5658 187.084 82.3475C187.865 83.1293 188.385 83.9111 188.645 84.6929C189.166 85.4747 189.166 86.2564 189.166 87.0382V107.886ZM234.961 107.886H226.895V106.062C226.635 106.583 226.114 106.843 225.594 107.364C224.813 107.625 224.293 107.886 223.772 107.886H201.655C200.875 107.886 200.354 107.625 199.834 107.364C199.314 107.104 198.793 106.583 198.273 106.062C198.013 105.54 197.752 105.019 197.752 104.237C197.752 102.934 197.752 101.11 197.752 99.0255C197.752 97.2014 197.752 95.8984 197.752 95.8984C197.752 94.3348 198.013 93.0319 198.793 92.2501C199.574 91.4683 200.615 90.9471 201.655 90.9471H222.732C223.772 90.9471 224.553 91.2077 225.334 91.7289C226.114 92.2501 226.635 92.7713 226.895 93.0319V90.6865C226.895 90.1653 226.635 89.6441 226.374 89.123C226.114 88.6018 225.594 88.0806 225.073 87.82C224.553 87.2988 223.772 87.2988 222.992 87.2988H198.013V80.5234H226.374C227.415 80.5234 228.456 80.784 229.757 81.3052C230.798 82.0869 231.578 82.8687 232.359 83.6505C233.14 84.6929 233.92 85.7352 234.441 86.517C234.701 87.5594 234.961 88.6018 234.961 89.3836V107.886ZM225.334 99.2861C225.334 99.0255 225.073 98.7649 224.813 98.5043C224.553 98.2437 224.293 97.9831 224.033 97.7225C223.512 97.7225 223.252 97.4619 222.992 97.4619H207.64C206.859 97.4619 206.339 97.7225 206.079 98.2437C205.819 98.7649 205.558 99.0255 205.558 99.2861C205.558 99.8073 205.819 100.328 206.079 100.589C206.599 101.11 206.859 101.11 207.38 101.11H223.512C223.772 101.11 224.293 101.11 224.553 100.589C225.073 100.328 225.334 99.8073 225.334 99.2861ZM290.123 116.746H279.976L262.022 97.4619H251.874V107.886H243.808V90.9471H268.527C269.047 90.9471 269.568 90.6865 270.088 90.4259C270.608 89.9047 270.869 89.3836 270.869 88.8624C270.869 88.3412 270.608 88.0806 270.348 87.82C270.088 87.5594 269.828 87.2988 269.568 87.0382C269.047 87.0382 268.787 87.0382 268.267 87.0382H243.808V80.5234H273.731C275.032 80.5234 276.333 81.0446 277.374 82.0869C278.414 83.1293 278.935 84.1717 278.935 85.7352V92.5107C278.935 93.8136 278.675 94.5954 278.154 95.3772C277.634 95.8984 277.113 96.4196 276.333 96.6802C275.552 96.9408 274.772 97.2014 273.991 97.2014C273.21 97.4619 272.69 97.4619 272.43 97.4619L290.123 116.746ZM331.756 87.0382H317.705V107.886H309.899V80.5234H331.756V87.0382ZM307.817 107.886H300.011V87.0382H285.96V80.5234H307.817V107.886Z" fill="#F58634"/>
<defs>
<radialGradient id="paint0_radial" cx="0" cy="0" r="1" gradientUnits="userSpaceOnUse" gradientTransform="translate(43.7316 37.0063) scale(33.9196 37.0195)">
<stop stop-color="#F58634"/>
<stop offset="1" stop-color="#FFB92D"/>
</radialGradient>
</defs>
</svg>
