<svg width="25" height="35" viewBox="0 0 25 35" fill="none" xmlns="http://www.w3.org/2000/svg">
<path d="M22.75 10.6667C22.75 5.0121 18.1546 0.416687 12.5 0.416687C6.84544 0.416687 2.25002 5.0121 2.25002 10.6667C2.25002 18.3542 12.5 29.4584 12.5 29.4584C12.5 29.4584 22.75 18.3542 22.75 10.6667ZM9.08335 10.6667C9.08335 8.78752 10.6209 7.25002 12.5 7.25002C14.3792 7.25002 15.9167 8.78752 15.9167 10.6667C15.9167 12.5459 14.3963 14.0834 12.5 14.0834C10.6209 14.0834 9.08335 12.5459 9.08335 10.6667ZM0.541687 31.1667V34.5834H24.4584V31.1667H0.541687Z" fill="#A8518A"/>
</svg>
