<svg width="285" height="261" viewBox="0 0 285 261" fill="none" xmlns="http://www.w3.org/2000/svg">
<path d="M150.674 7.58545H282.782C283.647 7.58545 284.348 8.28738 284.348 9.15326V100.086C284.348 100.952 283.647 101.654 282.782 101.654H150.674C149.809 101.654 149.107 100.952 149.107 100.086V9.15326C149.107 8.28738 149.809 7.58545 150.674 7.58545Z" fill="#F2F6FB"/>
<path d="M149.107 5.23501C149.107 2.34811 151.448 0.0078125 154.331 0.0078125H279.124C282.009 0.0078125 284.348 2.34832 284.348 5.23501V11.5051H149.107V5.23501Z" fill="#D8DEED"/>
<path d="M156.976 8.36942C158.376 8.36942 159.511 7.25802 159.511 5.88704C159.511 4.51606 158.376 3.40466 156.976 3.40466C155.577 3.40466 154.442 4.51606 154.442 5.88704C154.442 7.25802 155.577 8.36942 156.976 8.36942Z" fill="#FF5645"/>
<path d="M165.246 8.36942C166.646 8.36942 167.78 7.25802 167.78 5.88704C167.78 4.51606 166.646 3.40466 165.246 3.40466C163.846 3.40466 162.712 4.51606 162.712 5.88704C162.712 7.25802 163.846 8.36942 165.246 8.36942Z" fill="#FFCB3D"/>
<path d="M173.781 8.36942C175.181 8.36942 176.315 7.25802 176.315 5.88704C176.315 4.51606 175.181 3.40466 173.781 3.40466C172.382 3.40466 171.247 4.51606 171.247 5.88704C171.247 7.25802 172.382 8.36942 173.781 8.36942Z" fill="#3ABF7C"/>
<path d="M157.099 23.8672C157.099 23.289 157.566 22.8202 158.142 22.8202H191.71C192.286 22.8202 192.753 23.2869 192.753 23.8672V61.4911C192.753 62.0693 192.286 62.5381 191.71 62.5381H158.142C157.566 62.5381 157.099 62.0714 157.099 61.4911V23.8672ZM198.9 56.9655C198.9 56.3872 199.367 55.9185 199.943 55.9185H233.512C234.088 55.9185 234.555 56.3852 234.555 56.9655V94.5894C234.555 95.1676 234.088 95.6364 233.512 95.6364H199.943C199.367 95.6364 198.9 95.1697 198.9 94.5894V56.9655ZM240.702 23.8672C240.702 23.289 241.169 22.8202 241.745 22.8202H275.313C275.889 22.8202 276.356 23.2869 276.356 23.8672V61.4911C276.356 62.0693 275.889 62.5381 275.313 62.5381H241.745C241.169 62.5381 240.702 62.0714 240.702 61.4911V23.8672ZM240.702 69.601C240.702 69.0238 241.169 68.556 241.745 68.556H275.313C275.889 68.556 276.356 69.026 276.356 69.601V94.5914C276.356 95.1685 275.889 95.6364 275.313 95.6364H241.745C241.169 95.6364 240.702 95.1664 240.702 94.5914V69.601ZM157.099 69.601C157.099 69.0238 157.566 68.556 158.142 68.556H191.71C192.286 68.556 192.753 69.026 192.753 69.601V94.5914C192.753 95.1685 192.286 95.6364 191.71 95.6364H158.142C157.566 95.6364 157.099 95.1664 157.099 94.5914V69.601ZM198.9 23.8652C198.9 23.288 199.367 22.8202 199.943 22.8202H233.512C234.088 22.8202 234.555 23.2902 234.555 23.8652V48.8556C234.555 49.4327 234.088 49.9006 233.512 49.9006H199.943C199.367 49.9006 198.9 49.4306 198.9 48.8556V23.8652Z" fill="#E1E5F0"/>
<path d="M176.669 48.6812L175.907 48.6895L175.913 48.6812H166.324C166.034 48.6812 165.936 48.4877 166.099 48.255L172.796 38.7292C172.962 38.4939 173.236 38.4911 173.408 38.7217L178.275 45.3137L180.086 42.7324C180.253 42.4955 180.532 42.4895 180.708 42.716L184.896 48.1041C185.073 48.3319 184.983 48.5229 184.695 48.5308L180.92 48.6344L180.608 48.6378L180.638 48.6812C180.638 48.6812 180.405 48.6812 180.114 48.6812H176.669ZM180.544 40.0979C179.668 40.0979 178.958 39.4633 178.958 38.6805C178.958 37.8977 179.668 37.2631 180.544 37.2631C181.42 37.2631 182.131 37.8977 182.131 38.6805C182.131 39.4633 181.42 40.0979 180.544 40.0979ZM217.583 81.7794L216.821 81.7878L216.827 81.7794H207.238C206.948 81.7794 206.85 81.5859 207.013 81.3532L213.71 71.8275C213.876 71.5921 214.15 71.5893 214.322 71.8199L219.189 78.412L221 75.8307C221.167 75.5938 221.446 75.5877 221.622 75.8142L225.81 81.2023C225.987 81.4301 225.897 81.6212 225.609 81.6291L221.834 81.7327L221.522 81.7361L221.552 81.7794C221.552 81.7794 221.319 81.7794 221.028 81.7794H217.583ZM221.458 73.1962C220.582 73.1962 219.872 72.5616 219.872 71.7788C219.872 70.9959 220.582 70.3613 221.458 70.3613C222.334 70.3613 223.045 70.9959 223.045 71.7788C223.045 72.5616 222.334 73.1962 221.458 73.1962ZM258.497 48.6812L257.735 48.6895L257.741 48.6812H248.152C247.862 48.6812 247.764 48.4877 247.927 48.255L254.624 38.7292C254.79 38.4939 255.064 38.4911 255.236 38.7217L260.103 45.3137L261.914 42.7324C262.081 42.4955 262.36 42.4895 262.536 42.716L266.724 48.1041C266.901 48.3319 266.811 48.5229 266.523 48.5308L262.748 48.6344L262.436 48.6378L262.466 48.6812C262.466 48.6812 262.233 48.6812 261.942 48.6812H258.497ZM262.372 40.0979C261.496 40.0979 260.786 39.4633 260.786 38.6805C260.786 37.8977 261.496 37.2631 262.372 37.2631C263.248 37.2631 263.959 37.8977 263.959 38.6805C263.959 39.4633 263.248 40.0979 262.372 40.0979ZM258.497 87.7973L257.735 87.8056L257.741 87.7973H248.152C247.862 87.7973 247.764 87.6038 247.927 87.3711L254.624 77.8454C254.79 77.61 255.064 77.6072 255.236 77.8378L260.103 84.4298L261.914 81.8485C262.081 81.6117 262.36 81.6056 262.536 81.8321L266.724 87.2202C266.901 87.448 266.811 87.639 266.523 87.647L262.748 87.7505L262.436 87.7539L262.466 87.7973C262.466 87.7973 262.233 87.7973 261.942 87.7973H258.497ZM262.372 79.2141C261.496 79.2141 260.786 78.5795 260.786 77.7966C260.786 77.0138 261.496 76.3792 262.372 76.3792C263.248 76.3792 263.959 77.0138 263.959 77.7966C263.959 78.5795 263.248 79.2141 262.372 79.2141ZM176.669 87.7973L175.907 87.8056L175.913 87.7973H166.324C166.034 87.7973 165.936 87.6038 166.099 87.3711L172.796 77.8454C172.962 77.61 173.236 77.6072 173.408 77.8378L178.275 84.4298L180.086 81.8485C180.253 81.6117 180.532 81.6056 180.708 81.8321L184.896 87.2202C185.073 87.448 184.983 87.639 184.695 87.647L180.92 87.7505L180.608 87.7539L180.638 87.7973C180.638 87.7973 180.405 87.7973 180.114 87.7973H176.669ZM180.544 79.2141C179.668 79.2141 178.958 78.5795 178.958 77.7966C178.958 77.0138 179.668 76.3792 180.544 76.3792C181.42 76.3792 182.131 77.0138 182.131 77.7966C182.131 78.5795 181.42 79.2141 180.544 79.2141ZM217.583 42.0615L216.821 42.0699L216.827 42.0615H207.238C206.948 42.0615 206.85 41.868 207.013 41.6353L213.71 32.1096C213.876 31.8742 214.15 31.8714 214.322 32.102L219.189 38.694L221 36.1128C221.167 35.8759 221.446 35.8698 221.622 36.0963L225.81 41.4844C225.987 41.7122 225.897 41.9033 225.609 41.9112L221.834 42.0148L221.522 42.0182L221.552 42.0615C221.552 42.0615 221.319 42.0615 221.028 42.0615H217.583ZM221.458 33.4783C220.582 33.4783 219.872 32.8437 219.872 32.0609C219.872 31.278 220.582 30.6434 221.458 30.6434C222.334 30.6434 223.045 31.278 223.045 32.0609C223.045 32.8437 222.334 33.4783 221.458 33.4783Z" fill="#F2F6FB"/>
<path d="M210.644 201.67V201.719C210.644 202.346 210.096 202.869 209.469 202.869H189.757L196.702 215.62C201.663 224.713 206.597 233.781 211.532 242.874L219.704 257.873C219.991 258.395 219.756 259.075 219.207 259.388L219.103 259.44C218.555 259.754 217.85 259.571 217.589 259.075L187.016 202.869H166.652L136.079 259.075C135.818 259.571 135.113 259.728 134.565 259.44L134.46 259.388C133.912 259.075 133.677 258.395 133.964 257.873L142.136 242.874C147.096 233.781 152.031 224.713 156.965 215.62L163.911 202.869H137.776C137.123 202.869 136.601 202.346 136.601 201.719V201.588C136.601 200.961 137.149 200.438 137.776 200.438H155.529C167.095 200.438 178.687 200.438 190.28 200.438H208.339L210.54 182.618C212.054 170.493 213.542 158.343 215.056 146.192L217.537 126.124C217.615 125.419 218.215 124.896 218.868 124.974L218.999 125C219.625 125.079 220.069 125.732 219.991 126.385L210.67 201.536C210.663 201.582 210.655 201.626 210.644 201.67Z" fill="#D8DEED"/>
<path d="M132.137 0.00805664H5.51169C2.62785 0.00805664 0.290039 2.34784 0.290039 5.2341V95.6446C0.290039 98.5309 2.62785 100.871 5.51169 100.871H132.137C135.021 100.871 137.358 98.5309 137.358 95.6446V5.2341C137.358 2.34784 135.021 0.00805664 132.137 0.00805664Z" fill="#F2F6FB"/>
<path d="M136.314 10.9191H1.33437C0.757602 10.9191 0.290039 11.387 0.290039 11.9643V78.5092C0.290039 79.0864 0.757602 79.5544 1.33437 79.5544H136.314C136.891 79.5544 137.358 79.0864 137.358 78.5092V11.9643C137.358 11.387 136.891 10.9191 136.314 10.9191Z" fill="#E1E5F0"/>
<path d="M136.314 10.9191H1.33437C0.757602 10.9191 0.290039 11.387 0.290039 11.9643V78.5092C0.290039 79.0864 0.757602 79.5544 1.33437 79.5544H136.314C136.891 79.5544 137.358 79.0864 137.358 78.5092V11.9643C137.358 11.387 136.891 10.9191 136.314 10.9191Z" fill="#E1E5F0"/>
<mask id="mask0" mask-type="alpha" maskUnits="userSpaceOnUse" x="0" y="10" width="138" height="70">
<path d="M136.314 10.983H1.33437C0.757602 10.983 0.290039 11.451 0.290039 12.0282V78.5732C0.290039 79.1504 0.757602 79.6184 1.33437 79.6184H136.314C136.891 79.6184 137.358 79.1504 137.358 78.5732V12.0282C137.358 11.451 136.891 10.983 136.314 10.983Z" fill="white"/>
</mask>
<g mask="url(#mask0)">
<path d="M136.314 10.983H1.33437C0.757602 10.983 0.290039 11.451 0.290039 12.0282V78.5732C0.290039 79.1504 0.757602 79.6184 1.33437 79.6184H136.314C136.891 79.6184 137.358 79.1504 137.358 78.5732V12.0282C137.358 11.451 136.891 10.983 136.314 10.983Z" fill="#E1E5F0"/>
<path d="M136.314 62.3718H1.33437C0.757602 62.3718 0.290039 62.8398 0.290039 63.417V79.0951C0.290039 79.6724 0.757602 80.1404 1.33437 80.1404H136.314C136.891 80.1404 137.358 79.6724 137.358 79.0951V63.417C137.358 62.8398 136.891 62.3718 136.314 62.3718Z" fill="#A339FF"/>
<path fill-rule="evenodd" clip-rule="evenodd" d="M63.0723 86.8218C66.1449 88.4596 67.9104 89.6009 67.9104 89.6009L61.7104 89.5695L61.4011 90.1935C60.979 89.9774 60.5671 89.7668 60.1656 89.5617L59.978 89.5607C59.9921 89.8679 60.0061 90.1774 60.0198 90.4893L57.3489 89.5474L50.1108 89.5107C46.6166 92.1395 25.5954 90.2115 20.4954 89.3608L16.3074 89.3396C0.7899 91.1687 11.4033 57.8788 11.4033 57.8788C13.7445 51.1147 15.6712 46.8209 17.1833 44.9974C19.8323 41.803 24.5226 41.1594 27.2486 41.0337C30.7396 40.3222 39.1069 41.4942 40.8634 41.9651C41.0774 42.0241 41.2985 42.0847 41.5255 42.1478C41.5179 42.1328 41.5104 42.1179 41.5028 42.1029C45.7389 41.9943 49.1775 43.9517 51.8184 47.975C52.8837 49.598 54.4319 57.2006 56.3183 60.6377C56.9666 61.819 57.5454 63.9575 58.0546 67.0532C58.9611 65.5802 59.9333 63.9994 60.9711 62.3109C61.1977 61.9421 61.6801 61.8271 62.0486 62.0539C62.0572 62.0592 62.0656 62.0647 62.074 62.0703L71.4607 68.3618C71.7877 68.5809 71.9014 69.0087 71.7266 69.3615L63.0723 86.8218Z" fill="white"/>
<path d="M32.0156 41.1605C34.3744 64.5176 35.5537 76.1961 35.5537 76.1961C35.5537 76.1961 39.6629 77.5024 47.8811 80.1149L41.2031 42.2223L32.0156 41.1605Z" fill="#D8DEED"/>
<path d="M79.6171 63.8405C79.3965 63.9594 79.144 64.0268 78.8759 64.0268C78.8246 64.0268 78.7738 64.0243 78.7238 64.0195L78.3537 64.0936V63.9376C77.7453 63.7224 77.3094 63.1416 77.3094 62.459V54.3586C77.3094 53.676 77.7453 53.0953 78.3537 52.88V52.7773L80.6413 52.3175C81.481 52.1604 82.2555 52.8649 82.3537 53.9012L82.4545 54.823C82.5015 55.3943 82.3404 55.9339 82.0509 56.3422C82.2227 56.6044 82.3315 56.9356 82.3532 57.3131L82.4544 58.2343C82.5064 58.8618 82.3069 59.4508 81.9617 59.8694C82.0293 60.0502 82.0745 60.2497 82.0922 60.4639L82.1933 61.3851C82.2819 62.4557 81.6387 63.4144 80.789 63.6058L79.6171 63.8405ZM72.871 65.0296V65.192L72.8043 65.2054C72.4138 66.2337 71.9927 67.3118 71.5411 68.4395C71.5168 68.4184 71.491 68.3987 71.4637 68.3804L62.0762 62.0884C62.0683 62.0831 62.0603 62.0779 62.0522 62.0729C62.0218 62.0541 61.9906 62.0376 61.9588 62.0234L65.0186 57.1286C73.8927 49.4011 77.5505 48.825 75.992 55.4002C75.407 57.8686 74.3666 61.0783 72.871 65.0296ZM40.8991 37.3846L41.2031 42.2223L38.6103 44.4455C34.2138 42.2555 32.0155 41.1605 32.0155 41.1605C32.0155 41.1605 32.0155 37.8472 32.0155 31.2207C31.1713 30.2767 30.4847 29.4066 30.2024 28.8375C29.6318 27.7071 29.4137 25.4132 29.6618 24.0537C29.7441 23.4957 31.6285 21.8102 32.8223 21.0761C33.9641 20.3466 36.3809 22.7359 36.6286 22.8716L36.4102 16.1759C36.3998 15.7571 36.7084 15.3891 37.1528 15.3764C38.0654 15.3227 38.9734 15.217 39.9436 14.9222C40.0476 14.9131 40.1493 14.8779 40.2534 14.8688C41.1309 14.7133 46.0781 14.044 48.9501 17.5172C49.2115 17.8091 49.4491 18.1293 49.6676 18.5298C50.1419 19.4588 50.415 20.4841 50.428 21.5322L50.4689 26.1975C50.4578 26.6706 50.4208 27.146 50.3554 27.5976C49.8879 30.9436 48.8998 33.7318 47.7473 35.5377C46.8965 36.8974 45.9198 37.7174 45.0118 37.8231C44.754 37.8719 43.3472 37.9689 41.6654 37.6178C41.5557 37.5915 41.5848 37.6144 40.8991 37.3846Z" fill="#DB9E75"/>
<path d="M25.6727 75.668C25.6284 75.6733 25.5762 75.68 25.5165 75.6879C25.2789 75.7198 25.0136 75.7617 24.7276 75.8151C23.9115 75.9673 23.0958 76.1796 22.3381 76.4606C21.8908 76.6264 21.4771 76.8118 21.1039 77.0173C20.9143 77.1216 20.6762 77.0524 20.572 76.8627C20.4678 76.673 20.5369 76.4347 20.7264 76.3304C21.1355 76.1052 21.5841 75.9042 22.066 75.7255C22.8698 75.4274 23.7272 75.2043 24.5841 75.0444C24.8837 74.9885 25.1622 74.9445 25.4126 74.911C25.4616 74.9044 25.5076 74.8985 25.5505 74.8932L32.1262 55.0203C32.1942 54.8148 32.4157 54.7034 32.6211 54.7714C32.8264 54.8395 32.9377 55.0612 32.8697 55.2667L26.3556 74.9535C35.7161 75.6864 45.2591 78.4207 54.5496 82.5115C58.263 84.1466 61.6791 85.8886 64.7207 87.6244C65.7858 88.2323 66.7284 88.7962 67.5387 89.3019C67.8227 89.4792 68.07 89.6366 68.2795 89.7724C68.353 89.8201 68.4166 89.8617 68.4701 89.8971C68.5026 89.9185 68.5247 89.9332 68.5362 89.9409C68.7158 90.0615 68.7637 90.305 68.6432 90.4848C68.5227 90.6645 68.2794 90.7125 68.0998 90.5919C68.0588 90.5644 67.9763 90.5099 67.8535 90.4303C67.6479 90.2969 67.4044 90.1419 67.1242 89.9671C66.3225 89.4667 65.3887 88.9081 64.3327 88.3054C61.3136 86.5824 57.9215 84.8526 54.2342 83.229C44.8538 79.0986 35.2193 76.3639 25.7985 75.6981C25.7536 75.6949 25.7114 75.6844 25.6727 75.668ZM56.5811 69.7411C56.6999 69.5602 56.9427 69.5099 57.1235 69.6288C57.3042 69.7477 57.3545 69.9907 57.2357 70.1716C57.2249 70.188 57.2249 70.188 57.1735 70.2665C57.1226 70.344 57.0637 70.434 56.9974 70.5354C56.8078 70.8251 56.5967 71.1483 56.3697 71.4968C55.7211 72.4924 55.0745 73.4912 54.474 74.4275C54.4121 74.524 54.4121 74.524 54.3503 74.6204C53.436 76.048 52.7256 77.1806 52.2911 77.9107C52.1804 78.0967 51.94 78.1577 51.7542 78.0469C51.5684 77.9361 51.5075 77.6955 51.6182 77.5096C52.0583 76.77 52.7722 75.6318 53.6909 74.1974C53.7528 74.1007 53.7528 74.1007 53.8148 74.004C54.4165 73.0659 55.064 72.0657 55.7136 71.0687C55.9409 70.7197 56.1523 70.3961 56.3421 70.1059C56.4086 70.0043 56.4676 69.9142 56.5186 69.8365C56.5702 69.7577 56.5702 69.7577 56.5811 69.7411Z" fill="#482D1F"/>
<mask id="mask1" mask-type="alpha" maskUnits="userSpaceOnUse" x="72" y="36" width="7" height="35">
<path d="M78.3538 52.88C77.7454 53.0952 77.3095 53.676 77.3095 54.3586V62.459C77.3095 63.1416 77.7454 63.7223 78.3538 63.9376V67.2595C78.3538 68.7748 77.1265 70.0032 75.6125 70.0032C74.0984 70.0032 72.8711 68.7748 72.8711 67.2595V36.5565H78.3538V52.88Z" fill="white"/>
</mask>
<g mask="url(#mask1)">
<path d="M78.3538 52.88C77.7454 53.0952 77.3095 53.676 77.3095 54.3586V62.459C77.3095 63.1416 77.7454 63.7223 78.3538 63.9376V67.2595C78.3538 68.7748 77.1265 70.0032 75.6125 70.0032C74.0984 70.0032 72.8711 68.7748 72.8711 67.2595V36.5565H78.3538V52.88Z" fill="white"/>
<path d="M77.3093 55.8928V62.4589C77.3093 63.3248 78.0107 64.0267 78.8758 64.0267C79.741 64.0267 80.4423 63.3248 80.4423 62.4589V59.1759V71.0483H69.999V55.8928H77.3093Z" fill="#3ABF7C"/>
</g>
<path d="M40.9268 37.3669L41.0894 40.2572L37.0476 36.0062L40.9268 37.3669ZM49.0575 27.9167C49.1356 27.6033 49.4486 27.368 49.7618 27.42C49.9706 27.4459 50.1273 27.6025 50.2058 27.968C50.2846 28.8819 49.2937 30.0316 49.0063 29.4835C48.7973 29.1442 48.9535 28.3868 49.0575 27.9167ZM43.3651 27.2063C43.4432 26.8929 43.7562 26.6577 44.0694 26.7096C44.2782 26.7356 44.4348 26.8921 44.5134 27.2577C44.5922 28.1716 43.6013 29.3213 43.3139 28.7731C43.1049 28.4338 43.261 27.6764 43.3651 27.2063ZM47.0973 28.12C47.0958 27.9758 47.2114 27.8576 47.3555 27.8561C47.4996 27.8545 47.6177 27.9702 47.6192 28.1144L47.6469 30.7283C47.6471 31.0292 47.3739 31.3029 47.0732 31.3032C46.9102 31.3033 46.7495 31.2931 46.5065 31.2698C46.4613 31.2654 46.4143 31.2607 46.347 31.2539C46.2629 31.2454 46.2173 31.2408 46.1736 31.2365C46.0251 31.2216 45.9025 31.21 45.7718 31.1987C45.6282 31.1864 45.5219 31.0598 45.5343 30.9162C45.5467 30.7725 45.6731 30.666 45.8167 30.6784C45.9501 30.6899 46.0749 30.7017 46.2256 30.7168C46.2696 30.7212 46.3155 30.7258 46.3994 30.7343C46.466 30.7411 46.5123 30.7456 46.5565 30.7499C46.7842 30.7718 46.9301 30.781 47.0729 30.7809C47.0853 30.7809 47.125 30.7411 47.125 30.7313L47.0973 28.12ZM45.2734 32.6624C45.0907 32.5842 44.647 32.3757 44.6207 32.1146C44.6207 32.0623 44.5945 31.984 44.6467 31.9579C44.7771 31.8272 45.0903 31.9575 45.5601 32.0877C46.3953 32.296 47.0738 32.3477 47.0738 32.3477C47.0738 32.3477 46.8131 32.7657 46.6566 32.8703C46.3437 33.1839 45.5345 32.7928 45.2734 32.6624Z" fill="#482D1F"/>
<path d="M35.5238 29.8082C35.3168 32.6301 33.091 34.9668 30.1824 35.2236C26.9518 35.5088 24.1022 33.1202 23.8175 29.8885C23.6373 27.8414 24.5294 25.947 26.0288 24.7608C26.0266 24.7494 26.0245 24.7381 26.0224 24.7267C25.8574 23.7453 25.2499 20.4179 27.2681 17.7498C27.9725 16.8228 28.8198 16.3286 29.1677 16.1144C31.1413 15.0228 32.6973 15.4359 36.6558 15.165C36.9678 15.1375 37.49 15.1176 38.1637 15.0319C39.3833 14.898 40.2366 14.7702 40.4706 14.7496C42.4136 14.4994 46.7039 14.7235 48.8299 17.445C48.9477 17.5919 46.7761 16.6956 43.2072 18.9684C39.6384 21.2412 39.0305 22.7919 37.2196 24.8389C37.1305 24.9717 37.0369 25.1162 36.9396 25.2708L36.8747 24.7907C36.8747 24.7907 36.6883 23.8636 35.9559 22.9848C35.8993 22.9373 35.407 22.4042 34.7058 22.1778C33.4427 21.8176 31.879 22.506 31.0935 23.7024C30.2584 24.9293 30.3935 26.4637 30.9905 27.5904C31.5876 28.7171 32.5976 29.1784 32.9493 29.3046C33.1743 29.3853 34.0325 29.5532 35.5238 29.8082Z" fill="#482D1F"/>
<path d="M39.3869 26.2138L36.8429 25.3188C36.6391 25.2471 36.5321 25.0239 36.6039 24.8204C36.6758 24.6169 36.8993 24.51 37.1032 24.5817L39.732 25.5066C40.3863 24.4648 41.5461 23.7715 42.8686 23.7696C44.9149 23.7666 46.5759 25.4204 46.5784 27.4634C46.5785 27.5122 46.5776 27.5607 46.5758 27.6091L47.3644 27.7046C47.7185 26.0325 49.2042 24.7765 50.9847 24.7739C53.0311 24.771 54.692 26.4248 54.6946 28.4677C54.6972 30.5107 53.0404 32.1692 50.9941 32.1721C48.9491 32.175 47.2889 30.5233 47.2843 28.4822L46.4643 28.3828C46.0569 29.9816 44.6064 31.1653 42.878 31.1678C40.8316 31.1707 39.1707 29.5169 39.1681 27.474C39.1675 27.0316 39.2448 26.6072 39.3869 26.2138ZM40.222 26.2402C40.0475 26.6148 39.9503 27.0325 39.9509 27.4728C39.9529 29.0842 41.263 30.3886 42.877 30.3863C44.491 30.384 45.7977 29.0758 45.7957 27.4645C45.7936 25.8531 44.4836 24.5488 42.8696 24.5511C41.7614 24.5527 40.7981 25.1698 40.3038 26.078C40.3006 26.0914 40.2967 26.1047 40.292 26.1179C40.2758 26.1639 40.2518 26.205 40.222 26.2402ZM48.0751 28.2551C48.0697 28.3284 48.0669 28.4025 48.067 28.4772C48.0691 30.0885 49.3791 31.3929 50.9931 31.3906C52.6071 31.3883 53.9139 30.0802 53.9118 28.4688C53.9098 26.8575 52.5997 25.5531 50.9857 25.5554C49.4999 25.5575 48.2744 26.6664 48.0908 28.0996C48.0936 28.1279 48.0934 28.1568 48.0898 28.1861C48.0869 28.2099 48.082 28.233 48.0751 28.2551Z" fill="#482D1F"/>
</g>
<path d="M111.302 37.2073L108.658 36.3982C108.382 36.3138 108.227 36.0217 108.312 35.7457L111.696 24.665C111.781 24.389 112.073 24.2336 112.348 24.318L115.784 25.3691C116.059 25.4535 116.215 25.7457 116.13 26.0217L113.25 35.4506L117.223 36.6385C120.894 49.6077 121.079 57.6484 117.777 60.7605C114.829 63.5385 114.281 66.2822 116.133 68.9915H120.127C120.415 68.9915 120.649 69.2255 120.649 69.5141V72.3884C120.649 72.677 120.415 72.911 120.127 72.911H94.0183C93.7299 72.911 93.4961 72.677 93.4961 72.3884V69.5141C93.4961 69.2255 93.7299 68.9915 94.0183 68.9915H100.326C101.964 67.2407 104.824 63.3292 108.905 57.2571L98.3085 54.411C97.2661 54.131 96.6475 53.0584 96.9268 52.0149C97.2059 50.9721 98.2767 50.3531 99.3187 50.6324C99.319 50.6325 99.3193 50.6326 99.3196 50.6327L115.717 55.037C115.738 55.0426 115.759 55.0485 115.779 55.0547C115.952 54.7892 116.039 54.4446 116.039 54.0207C116.039 51.4559 117.42 42.8197 114.82 41.8018C113.087 41.1233 111.665 40.6488 110.555 40.3784L111.302 37.2073ZM106.972 41.9027L110.407 42.9539C110.683 43.0383 110.838 43.3304 110.754 43.6064L109.775 46.8095C109.401 48.0349 108.105 48.7246 106.881 48.35C105.656 47.9753 104.967 46.6782 105.342 45.4528L106.32 42.2497C106.404 41.9737 106.696 41.8184 106.972 41.9027Z" fill="#474961"/>
<path d="M114.252 39.4644C116.199 39.4644 117.777 37.885 117.777 35.9368C117.777 33.9885 116.199 32.4092 114.252 32.4092C112.306 32.4092 110.728 33.9885 110.728 35.9368C110.728 37.885 112.306 39.4644 114.252 39.4644Z" fill="#F2F6FB"/>
<path d="M110.541 43.0492C110.517 43.0377 110.492 43.0279 110.466 43.0199L107.031 41.9688C106.955 41.9455 106.878 41.9405 106.804 41.9512L108.544 36.2527C108.567 36.2635 108.591 36.2728 108.616 36.2804L112.051 37.3316C112.129 37.3552 112.207 37.36 112.282 37.3486L110.541 43.0492ZM115.942 25.3666C115.887 25.3151 115.819 25.2751 115.741 25.2514L112.306 24.2002C112.281 24.1926 112.256 24.187 112.231 24.1832L113.028 21.5758C113.112 21.2997 113.404 21.1444 113.68 21.2288L116.406 22.0628C116.681 22.1472 116.837 22.4394 116.752 22.7154L115.942 25.3666Z" fill="#F2F6FB"/>
<path d="M75.2503 86.4988H8.38349C8.09511 86.4988 7.86133 86.7328 7.86133 87.0214V90.9678C7.86133 91.2565 8.09511 91.4904 8.38349 91.4904H75.2503C75.5387 91.4904 75.7725 91.2565 75.7725 90.9678V87.0214C75.7725 86.7328 75.5387 86.4988 75.2503 86.4988Z" fill="#E1E5F0"/>
<path d="M103.699 84.4083H121.673C122.745 84.4083 123.49 84.5902 124.128 84.9318C124.767 85.2734 125.267 85.7747 125.609 86.4135C125.95 87.0522 126.132 87.7981 126.132 88.8713V89.3522C126.132 90.4255 125.95 91.1714 125.609 91.8101C125.267 92.4488 124.767 92.9501 124.128 93.2917C123.49 93.6333 122.745 93.8152 121.673 93.8152H103.699C102.627 93.8152 101.882 93.6333 101.244 93.2917C100.605 92.9501 100.105 92.4488 99.7633 91.8101C99.422 91.1714 99.2402 90.4255 99.2402 89.3522V88.8713C99.2402 87.7981 99.422 87.0522 99.7633 86.4135C100.105 85.7747 100.605 85.2734 101.244 84.9318C101.882 84.5902 102.627 84.4083 103.699 84.4083Z" fill="#474BFF"/>
<path d="M171.18 256.868L157.07 256.868C156.421 256.868 155.895 257.394 155.895 258.043C155.895 258.693 156.421 259.219 157.07 259.219L171.691 259.219C171.957 259.219 172.203 259.13 172.4 258.981L172.404 258.981L198.386 239.495C198.863 239.137 198.979 238.434 198.596 237.983L198.519 237.851C198.29 237.559 197.927 237.396 197.561 237.416C197.352 237.412 197.168 237.487 196.983 237.615L171.18 256.868ZM103.548 256.868C102.899 256.868 102.373 257.394 102.373 258.043C102.373 258.693 102.899 259.219 103.548 259.219L145.321 259.219C145.97 259.219 146.496 258.693 146.496 258.043C146.496 257.394 145.97 256.868 145.321 256.868L103.548 256.868Z" fill="#A339FF"/>
<path d="M103.176 256.982C103.298 256.939 103.431 256.915 103.568 256.915L145.341 256.915C145.456 256.915 145.567 256.931 145.672 256.962L145.982 240.493L126.348 240.493C123.936 242.072 122.366 243.212 121.64 243.913C120.551 244.966 119.385 245.938 118.117 246.779C115.053 248.79 113.461 248.762 108.801 250.954C107.537 251.533 106.325 252.192 105.137 252.929C103.949 253.666 103.543 254.495 103.208 255.744C103.152 255.952 103.148 256.161 103.119 256.343C103.114 256.624 103.136 256.827 103.176 256.982ZM197.54 237.463L188.134 224.077L172.211 235.742L171.713 237.301C169.774 243.679 168.723 247.041 168.561 247.386C168.365 247.791 168.163 248.164 167.952 248.528C166.522 249.081 164.901 249.618 162.417 250.807C161.153 251.386 159.941 252.044 158.753 252.782C157.565 253.519 157.159 254.348 156.824 255.597C156.768 255.805 156.764 256.014 156.735 256.196C156.73 256.463 156.771 256.713 156.838 256.942C156.92 256.924 157.004 256.915 157.09 256.915L171.2 256.915L197.003 237.662C197.176 237.543 197.348 237.47 197.54 237.463Z" fill="#474961"/>
<path d="M146.168 218.74C151.233 220.844 157.56 219.373 165.147 214.328C178.627 205.364 177.364 202.05 176.189 200.352C176.189 200.325 175.979 200.015 175.979 199.988C176.396 199.988 175.92 199.649 178.897 199.623C181.873 199.597 197.903 199.257 204.039 190.399C206.486 186.865 206.676 182.952 206.859 181.201C207.537 174.39 204.935 167.952 199.05 161.887C156.443 161.924 135.104 161.925 135.035 161.891C134.93 161.838 126.787 161.625 121.521 165.325C116.47 168.873 111.973 176.392 117.177 189.512L117.939 207.674C118.197 213.823 122.962 218.831 129.086 219.389C131.817 219.638 134.813 219.763 138.073 219.763C139.845 219.763 142.3 219.476 145.439 218.902C145.685 218.856 145.928 218.802 146.168 218.74V218.74Z" fill="#3ABF7C"/>
<path opacity="0.176986" d="M146.311 218.664C145.34 218.271 144.416 217.748 143.538 217.095C127.501 202.081 118.968 193.418 117.94 191.106C117.673 190.505 117.426 189.915 117.197 189.337L117.965 207.63C118.223 213.779 122.988 218.787 129.112 219.345C131.843 219.594 134.839 219.719 138.099 219.719C139.87 219.719 142.325 219.432 145.465 218.857C145.751 218.805 146.033 218.74 146.311 218.664H146.311Z" fill="#444444"/>
<path d="M164.137 182.559C165.425 184.509 166.782 186.404 170.076 190.913C173.381 195.438 174.741 197.339 176.042 199.308C176.201 199.549 176.135 199.873 175.895 200.032C175.654 200.192 175.33 200.125 175.171 199.885C173.883 197.935 172.526 196.04 169.232 191.53C165.927 187.005 164.567 185.105 163.266 183.135C163.107 182.894 163.173 182.57 163.413 182.411C163.654 182.252 163.978 182.318 164.137 182.559Z" fill="#482D1F"/>
<path d="M198.903 126.117C198.578 125.275 198.125 124.384 197.542 123.445C194.694 118.138 192.567 116.125 189.899 115.241C187.272 114.371 184.297 113.935 180.975 113.935C173.379 113.935 168.048 120.979 168.294 128.944L171.082 162.248C183.315 163.071 193.209 162.906 200.764 161.754C208.319 160.601 211.305 158.391 209.722 155.124L202.252 133.533C201.011 130.63 199.909 128.183 198.903 126.117L198.903 126.117Z" fill="#A339FF"/>
<path d="M174.814 206.471C173.099 208.41 170.142 210.898 165.223 214.129C162.197 216.117 159.37 217.544 156.745 218.409L172.183 235.757L188.134 224.077L174.814 206.471ZM146.543 218.613C146.439 218.573 146.335 218.532 146.231 218.49C145.99 218.552 145.746 218.606 145.498 218.651C142.359 219.218 139.904 219.501 138.132 219.501C134.87 219.501 131.873 219.378 129.14 219.132C127.65 218.998 126.24 218.601 124.955 217.987L126.348 240.494H145.982L146.543 218.613ZM185.67 104.295C186.598 103.57 187.253 102.337 187.064 100.933C186.894 99.5795 186.021 98.0668 184.83 97.6618C183.617 97.2496 181.953 98.116 182.068 97.4991L183.445 90.9518C183.513 90.5386 183.259 90.1312 182.852 90.0371C181.93 89.851 181.024 89.8294 180.11 89.3768C180.008 89.3533 179.913 89.3044 179.811 89.2808C178.969 88.9792 174.283 87.2258 170.852 90.1339C170.558 90.3611 170.273 90.6705 169.981 91.0054C169.292 91.7848 168.854 92.7562 168.67 93.7864L167.822 98.3909C167.767 98.8609 167.687 99.3251 167.683 99.8069C167.504 105.692 169.099 110.164 171.2 110.81C171.449 110.895 172.817 111.237 174.519 111.175C174.684 111.159 174.539 111.206 176.875 110.834C177.311 110.772 177.705 110.711 178.061 110.652L178.215 114.261C179.051 114.073 179.929 113.962 180.846 113.935C182.605 113.935 184.273 114.049 185.85 114.278L185.67 104.295ZM170.002 148.718C170.118 148.796 170.236 148.874 170.353 148.952C173.413 150.986 174.905 151.59 176.196 151.673C181.729 152.035 184.279 147.322 188.618 141.347C190.011 139.427 191.194 137.75 192.164 136.315C192.16 136.315 192.156 136.316 192.152 136.316C189.369 135.772 186.555 133.731 183.709 130.192C182.277 128.41 181.156 126.608 180.349 124.786C176.91 130.169 175.091 132.983 174.891 133.23C169.981 130.861 150.939 119.666 142.039 113.228C141.574 112.71 137.667 109.279 130.318 102.936C128.268 105.271 132.149 109.354 133.935 111.033C134.362 111.731 131.677 115.368 132.104 116.066C131.832 118.467 140.829 125.302 143.679 127.856C144.556 128.637 145.075 129.114 146.318 130.142C153.072 135.834 158.855 140.848 165.974 145.933L164.212 150.508L146.084 152.383C141.134 151.435 137.645 151.049 135.617 151.224C132.148 151.522 123.407 154.679 126.262 156.711C128.166 158.065 132.33 159.781 138.755 161.858C158.074 162.23 168.849 162.336 171.082 162.176L170.002 148.718V148.718Z" fill="#F2A98A"/>
<path d="M179.882 100.837L180.228 100.2C180.228 100.2 180.706 99.4226 181.65 98.8957C181.735 98.8549 182.333 98.5431 183.038 98.5895C184.294 98.6606 185.448 99.8257 185.736 101.159C186.067 102.551 185.461 103.865 184.558 104.661C183.992 105.161 183.362 105.381 182.885 105.484C183.636 106.325 184.559 107.323 185.653 108.478L185.731 112.994C188.381 113.457 190.5 112.969 192.086 111.532C194.66 109.199 193.598 106.462 192.225 105.118C191.911 104.811 191.367 104.321 190.695 103.76C191.194 103.085 191.672 102.271 192.042 101.305C192.367 100.361 193.557 97.1769 192.015 94.2194C191.483 93.1578 190.744 92.531 190.429 92.2705C188.693 90.8504 187.075 91.0128 183.226 90.0429C182.417 89.8294 181.228 89.5276 179.838 89.0457C179.731 89.0477 179.635 88.9987 179.533 88.9752C178.692 88.6735 174.089 87.3687 170.84 90.1847C170.829 90.2357 170.333 90.5235 170.341 90.6058C170.341 90.6058 170.993 94.9292 178.668 95.9249C178.668 95.9249 179.219 98.7221 179.882 100.837ZM167.639 96.6483C168.108 96.8282 168.909 97.0788 169.679 96.9753C170.878 96.8565 169.859 95.9986 168.801 95.827C168.285 95.7439 167.848 95.918 167.575 96.0736C167.358 96.2144 167.395 96.5429 167.639 96.6483ZM172.275 97.7469C172.769 97.9322 173.57 98.1827 174.365 98.0847C175.559 97.9915 174.546 97.108 173.488 96.9364C172.946 96.8479 172.509 97.022 172.235 97.1775C171.993 97.313 172.03 97.6414 172.275 97.7469Z" fill="#DE6903"/>
<path d="M178.117 112.905L181.064 109.981L178.01 110.644L178.117 112.905Z" fill="#482D1F"/>
<path d="M169.163 99.0691C169.199 98.7532 169.013 98.4552 168.712 98.3687C168.511 98.3111 168.307 98.3612 168.131 98.6912C167.725 99.4446 168.172 100.823 168.627 100.465C168.965 100.235 169.091 99.5105 169.163 99.0691ZM173.385 100.076C173.421 99.7604 173.235 99.4623 172.934 99.3759C172.733 99.3183 172.529 99.3683 172.353 99.6984C171.947 100.452 172.394 101.83 172.849 101.472C173.187 101.243 173.338 100.525 173.385 100.076Z" fill="#482D1F"/>
<path d="M170.898 105.404C171.088 105.39 171.555 105.329 171.691 105.065C171.702 105.013 171.744 104.942 171.729 104.886C171.659 104.711 171.311 104.717 170.84 104.67C170.007 104.573 169.359 104.355 169.359 104.355C169.359 104.355 169.455 104.909 169.556 105.064C169.724 105.528 170.601 105.42 170.898 105.404Z" fill="#482D1F"/>
<path d="M169.735 100.175L169.744 100.138L169.738 100.156L169.735 100.175ZM168.857 102.808L168.849 102.836C168.79 103.115 168.926 103.414 169.194 103.52C169.244 103.536 169.272 103.544 169.3 103.552C169.567 103.627 169.76 103.671 170.456 103.819C170.597 103.849 170.735 103.759 170.765 103.617C170.795 103.476 170.705 103.338 170.564 103.308C169.881 103.162 169.693 103.119 169.442 103.049C169.415 103.041 169.389 103.034 169.363 103.026C169.369 103.027 169.354 102.993 169.358 102.955L170.24 100.303L170.249 100.266L170.518 98.7473C170.543 98.6052 170.449 98.4696 170.307 98.4444C170.165 98.4192 170.029 98.5139 170.004 98.656L169.738 100.156L168.857 102.808Z" fill="#482D1F"/>
<path opacity="0.2" d="M169.951 148.556C168.581 147.648 167.266 146.747 165.995 145.848L164.212 150.508L146.084 152.383C141.135 151.437 137.646 151.051 135.616 151.224C132.144 151.519 123.404 154.7 126.262 156.711C128.167 158.051 132.351 159.77 138.812 161.87C160.367 162.312 171.124 162.405 171.082 162.147C171.079 162.129 171.076 162.097 171.074 162.048C171.065 162.048 171.055 162.047 171.046 162.046L169.951 148.556Z" fill="#8C2A00"/>
<path d="M191.874 136.154C193.461 134.238 194.778 132.562 195.825 131.124C195.952 130.95 196.197 130.911 196.372 131.039C196.547 131.166 196.585 131.411 196.458 131.586C195.401 133.038 194.074 134.727 192.477 136.655C192.338 136.821 192.092 136.844 191.925 136.706C191.759 136.568 191.736 136.321 191.874 136.154Z" fill="#482D1F"/>
<path d="M43.8905 164.105V257.521C43.8905 258.531 43.0723 259.35 42.0629 259.35C41.0536 259.35 40.2354 258.531 40.2354 257.521L40.2354 162.407C40.2354 161.527 40.8566 160.792 41.6841 160.617C41.9182 160.508 42.1793 160.447 42.4546 160.447H197.799C198.808 160.447 199.626 161.266 199.626 162.276C199.626 163.287 198.808 164.105 197.799 164.105H43.8905Z" fill="#D8DEED"/>
<path d="M73.9864 157.202L76.4972 147.063H57.6497C55.6916 147.063 54.0726 145.574 54.0726 143.771V115.054C54.0468 113.225 55.6394 111.735 57.6236 111.735H114.983C116.942 111.735 118.56 113.225 118.56 115.028V143.771C118.56 145.574 116.942 147.063 114.983 147.063H92.0146L90.9781 157.202H97.7784C98.8228 157.202 99.6321 158.038 99.6321 159.057C99.6321 160.103 98.7967 160.913 97.7784 160.913H68.6677C67.6234 160.913 66.814 160.077 66.814 159.057C66.7618 158.038 67.6234 157.202 68.6677 157.202H73.9864Z" fill="#474961"/>
<path fill-rule="evenodd" clip-rule="evenodd" d="M92.7925 139.673L92.8699 157.228H90.998L92.7925 139.673Z" fill="white"/>
<path d="M126.321 156.718C129.161 153.941 134.958 151.765 144.537 157.25C145.998 158.059 145.465 160.603 143.846 160.599L127.156 160.486C125.902 160.495 125.374 157.652 126.321 156.718Z" fill="#474961"/>
</svg>
