<svg width="327" height="241" viewBox="0 0 327 241" fill="none" xmlns="http://www.w3.org/2000/svg">
<path d="M324.977 29.1821H183.795C182.931 29.1821 182.229 29.8835 182.229 30.7487V189.755C182.229 190.62 182.931 191.322 183.795 191.322H324.977C325.841 191.322 326.543 190.62 326.543 189.755V30.7487C326.543 29.8835 325.841 29.1821 324.977 29.1821Z" fill="#F2F6FB"/>
<path d="M182.229 30.7509C182.229 29.8845 182.93 29.1821 183.795 29.1821H324.977C325.842 29.1821 326.543 29.882 326.543 30.7509V39.3648H182.229V30.7509Z" fill="#E1E5F0"/>
<path d="M190.319 36.7539C191.472 36.7539 192.407 35.8188 192.407 34.6652C192.407 33.5116 191.472 32.5764 190.319 32.5764C189.166 32.5764 188.231 33.5116 188.231 34.6652C188.231 35.8188 189.166 36.7539 190.319 36.7539Z" fill="#FF5645"/>
<path d="M197.365 36.7539C198.518 36.7539 199.453 35.8188 199.453 34.6652C199.453 33.5116 198.518 32.5764 197.365 32.5764C196.212 32.5764 195.277 33.5116 195.277 34.6652C195.277 35.8188 196.212 36.7539 197.365 36.7539Z" fill="#FFCB3D"/>
<path d="M204.15 36.7539C205.303 36.7539 206.238 35.8188 206.238 34.6652C206.238 33.5116 205.303 32.5764 204.15 32.5764C202.997 32.5764 202.062 33.5116 202.062 34.6652C202.062 35.8188 202.997 36.7539 204.15 36.7539Z" fill="#3ABF7C"/>
<path d="M200.393 50.2019C200.393 49.6264 200.858 49.1598 201.438 49.1598H306.27C306.847 49.1598 307.315 49.6281 307.315 50.2019V99.9963C307.315 100.572 306.85 101.038 306.27 101.038H201.438C200.861 101.038 200.393 100.57 200.393 99.9963V50.2019ZM203.018 104.322H263.364C264.814 104.322 265.989 105.498 265.989 106.949C265.989 108.399 264.814 109.575 263.364 109.575H203.018C201.568 109.575 200.393 108.399 200.393 106.949C200.393 105.498 201.568 104.322 203.018 104.322ZM203.018 112.859H256.804C258.254 112.859 259.43 114.035 259.43 115.486C259.43 116.936 258.254 118.112 256.804 118.112H203.018C201.568 118.112 200.393 116.936 200.393 115.486C200.393 114.035 201.568 112.859 203.018 112.859ZM203.018 121.396H250.245C251.695 121.396 252.87 122.572 252.87 124.023C252.87 125.473 251.695 126.649 250.245 126.649H203.018C201.568 126.649 200.393 125.473 200.393 124.023C200.393 122.572 201.568 121.396 203.018 121.396ZM201.28 139.623C201.28 139.047 201.745 138.581 202.322 138.581H231.031C231.607 138.581 232.074 139.046 232.074 139.623V168.347C232.074 168.923 231.608 169.39 231.031 169.39H202.322C201.746 169.39 201.28 168.924 201.28 168.347V139.623ZM237.293 139.623C237.293 139.047 237.758 138.581 238.335 138.581H267.044C267.62 138.581 268.087 139.046 268.087 139.623V168.347C268.087 168.923 267.621 169.39 267.044 169.39H238.335C237.759 169.39 237.293 168.924 237.293 168.347V139.623ZM273.567 139.623C273.567 139.047 274.032 138.581 274.609 138.581H303.318C303.894 138.581 304.361 139.046 304.361 139.623V168.347C304.361 168.923 303.895 169.39 303.318 169.39H274.609C274.033 169.39 273.567 168.924 273.567 168.347V139.623Z" fill="#E1E5F0"/>
<path d="M279.188 104.322H302.644C303.972 104.322 304.675 104.504 305.312 104.845C305.95 105.186 306.451 105.687 306.792 106.325C307.133 106.964 307.315 107.666 307.315 108.995V110.155C307.315 111.485 307.133 112.187 306.792 112.825C306.451 113.464 305.95 113.965 305.312 114.306C304.675 114.647 303.972 114.829 302.644 114.829H279.188C277.859 114.829 277.157 114.647 276.519 114.306C275.881 113.965 275.381 113.464 275.039 112.825C274.698 112.187 274.517 111.485 274.517 110.155V108.995C274.517 107.666 274.698 106.964 275.039 106.325C275.381 105.687 275.881 105.186 276.519 104.845C277.157 104.504 277.859 104.322 279.188 104.322Z" fill="#474BFF"/>
<path d="M261.824 172.001H239.381C238.228 172.001 237.293 172.936 237.293 174.089C237.293 175.243 238.228 176.178 239.381 176.178H261.824C262.977 176.178 263.911 175.243 263.911 174.089C263.911 172.936 262.977 172.001 261.824 172.001Z" fill="#D8DEED"/>
<path d="M251.124 179.05H239.381C238.228 179.05 237.293 179.985 237.293 181.139C237.293 182.293 238.228 183.228 239.381 183.228H251.124C252.277 183.228 253.212 182.293 253.212 181.139C253.212 179.985 252.277 179.05 251.124 179.05Z" fill="#D8DEED"/>
<path d="M225.811 172.001H203.368C202.215 172.001 201.28 172.936 201.28 174.089C201.28 175.243 202.215 176.178 203.368 176.178H225.811C226.964 176.178 227.899 175.243 227.899 174.089C227.899 172.936 226.964 172.001 225.811 172.001Z" fill="#D8DEED"/>
<path d="M215.111 179.05H203.368C202.215 179.05 201.28 179.985 201.28 181.139C201.28 182.293 202.215 183.228 203.368 183.228H215.111C216.264 183.228 217.199 182.293 217.199 181.139C217.199 179.985 216.264 179.05 215.111 179.05Z" fill="#D8DEED"/>
<path d="M275.654 172.001H297.836C298.989 172.001 299.924 172.936 299.924 174.089C299.924 175.243 298.989 176.178 297.836 176.178H275.654C274.501 176.178 273.566 175.243 273.566 174.089C273.566 172.936 274.501 172.001 275.654 172.001ZM275.654 179.05H287.397C288.55 179.05 289.485 179.985 289.485 181.139C289.485 182.293 288.55 183.228 287.397 183.228H275.654C274.501 183.228 273.566 182.293 273.566 181.139C273.566 179.985 274.501 179.05 275.654 179.05Z" fill="#D8DEED"/>
<mask id="mask0" mask-type="alpha" maskUnits="userSpaceOnUse" x="221" y="59" width="68" height="30">
<path d="M237.12 73.8342L238.482 64.5089C239.894 61.4971 245.29 59.9912 254.67 59.9912C264.05 59.9912 269.723 61.4971 271.689 64.5089C272.452 67.9502 272.937 70.913 273.144 73.3975C295.594 77.3819 293.865 85.6299 267.203 88.0527C240.281 90.4989 222.536 85.6064 221.211 82.0095C220.327 79.6116 225.468 76.9443 236.636 74.0077C236.796 73.9488 236.958 73.891 237.12 73.8342L237.12 73.8342Z" fill="white"/>
</mask>
<g mask="url(#mask0)">
<path d="M237.12 73.8342L238.482 64.5089C239.894 61.4971 245.29 59.9912 254.67 59.9912C264.05 59.9912 269.723 61.4971 271.689 64.5089C272.452 67.9502 272.937 70.913 273.144 73.3975C295.594 77.3819 293.865 85.6299 267.203 88.0527C240.281 90.4989 222.536 85.6064 221.211 82.0095C220.327 79.6116 225.468 76.9443 236.636 74.0077C236.796 73.9488 236.958 73.891 237.12 73.8342L237.12 73.8342Z" fill="#FFCB3D"/>
<path opacity="0.176986" d="M237.015 72.4553L238.025 67.8241C244.232 68.6527 250.087 69.1089 255.588 69.1926C261.09 69.2764 266.722 68.9951 272.484 68.3488L273.499 73.3481L273.065 73.3444C272.116 74.7903 264.343 75.918 254.895 75.918C244.807 75.918 236.628 74.6321 236.628 73.046C236.628 72.8435 236.761 72.6459 237.015 72.4553Z" fill="#444444"/>
</g>
<path d="M70.9163 34.4041H2.54377C1.39075 34.4041 0.456055 35.3392 0.456055 36.4928V77.5155C0.456055 78.6691 1.39075 79.6043 2.54377 79.6043H70.9163C72.0693 79.6043 73.004 78.6691 73.004 77.5155V36.4928C73.004 35.3392 72.0693 34.4041 70.9163 34.4041Z" fill="#F2F6FB"/>
<path d="M73.004 41.0366H0.456055V50.6171H73.004V41.0366Z" fill="#D8DEED"/>
<path d="M34.2781 65.8477H9.67178C7.29874 65.8477 5.375 67.7724 5.375 70.1466C5.375 72.5208 7.29874 74.4455 9.67178 74.4455H34.2781C36.6512 74.4455 38.5749 72.5208 38.5749 70.1466C38.5749 67.7724 36.6512 65.8477 34.2781 65.8477Z" fill="#E1E5F0"/>
<path d="M63.5428 65.8477H58.8564C56.4833 65.8477 54.5596 67.7724 54.5596 70.1466C54.5596 72.5208 56.4833 74.4455 58.8564 74.4455H63.5428C65.9158 74.4455 67.8395 72.5208 67.8395 70.1466C67.8395 67.7724 65.9158 65.8477 63.5428 65.8477Z" fill="#E1E5F0"/>
<path d="M63.5432 53.8105H9.67178C7.29874 53.8105 5.375 55.7352 5.375 58.1095C5.375 60.4837 7.29874 62.4084 9.67178 62.4084H63.5432C65.9163 62.4084 67.84 60.4837 67.84 58.1095C67.84 55.7352 65.9163 53.8105 63.5432 53.8105Z" fill="#E1E5F0"/>
<path d="M6.45836 124.088H113.193C114.057 124.088 114.758 124.79 114.758 125.655V196.544C114.758 197.409 114.057 198.11 113.193 198.11H6.45836C5.5936 198.11 4.89258 197.409 4.89258 196.544V125.655C4.89258 124.79 5.5936 124.088 6.45836 124.088Z" fill="#F2F6FB"/>
<path d="M49.2143 142.24H70.2616C71.3573 142.24 72.2455 143.129 72.2455 144.225C72.2455 145.322 71.3573 146.21 70.2616 146.21H49.2143C48.1186 146.21 47.2304 145.322 47.2304 144.225C47.2304 143.129 48.1186 142.24 49.2143 142.24ZM36.9546 135.541H82.5213C83.6855 135.541 84.6292 136.486 84.6292 137.65C84.6292 138.815 83.6855 139.759 82.5213 139.759H36.9546C35.7904 139.759 34.8467 138.815 34.8467 137.65C34.8467 136.486 35.7904 135.541 36.9546 135.541Z" fill="#E1E5F0"/>
<path d="M28.7788 165.535L25.1262 167.47C24.7433 167.673 24.4918 167.491 24.5643 167.065L25.2628 162.961L22.3039 160.055C21.9963 159.753 22.0924 159.457 22.5221 159.394L26.6058 158.796L28.4345 155.062C28.6246 154.674 28.9333 154.675 29.1231 155.062L30.9518 158.796L35.0354 159.394C35.4636 159.457 35.5607 159.753 35.2536 160.055L32.2948 162.961L32.9932 167.065C33.0659 167.492 32.8157 167.674 32.4313 167.47L28.7788 165.535ZM44.1346 165.783L40.482 167.719C40.0991 167.921 39.8476 167.739 39.9201 167.313L40.6186 163.209L37.6598 160.303C37.3521 160.001 37.4482 159.705 37.8779 159.642L41.9616 159.044L43.7903 155.31C43.9804 154.922 44.2891 154.923 44.4789 155.31L46.3076 159.044L50.3913 159.642C50.8194 159.705 50.9165 160.001 50.6094 160.303L47.6506 163.209L48.3491 167.313C48.4217 167.74 48.1715 167.922 47.7871 167.719L44.1346 165.783ZM59.7381 165.783L56.0855 167.719C55.7025 167.921 55.4511 167.739 55.5236 167.313L56.2221 163.209L53.2632 160.303C52.9555 160.001 53.0517 159.705 53.4814 159.642L57.5651 159.044L59.3937 155.31C59.5839 154.922 59.8926 154.923 60.0824 155.31L61.9111 159.044L65.9947 159.642C66.4229 159.705 66.52 160.001 66.2129 160.303L63.254 163.209L63.9525 167.313C64.0252 167.74 63.775 167.922 63.3906 167.719L59.7381 165.783ZM75.0939 165.783L71.4413 167.719C71.0583 167.921 70.8069 167.739 70.8794 167.313L71.5779 163.209L68.619 160.303C68.3113 160.001 68.4075 159.705 68.8372 159.642L72.9209 159.044L74.7496 155.31C74.9397 154.922 75.2484 154.923 75.4382 155.31L77.2669 159.044L81.3505 159.642C81.7787 159.705 81.8758 160.001 81.5687 160.303L78.6098 163.209L79.3083 167.313C79.381 167.74 79.1308 167.922 78.7464 167.719L75.0939 165.783Z" fill="#474BFF"/>
<path d="M90.3261 165.783L86.5897 167.725C86.206 167.924 85.9551 167.739 86.029 167.313L86.7412 163.209L83.7204 160.299C83.4088 159.999 83.5047 159.706 83.9304 159.644L88.1105 159.044L89.9763 155.308C90.1695 154.921 90.4819 154.919 90.676 155.308L92.5417 159.044L96.7219 159.644C97.1494 159.706 97.2439 159.998 96.9319 160.299L93.911 163.209L94.6232 167.313C94.6973 167.74 94.4457 167.924 94.0625 167.725L90.3261 165.783Z" fill="#E1E5F0"/>
<path d="M51.1983 180.202H68.2777C69.0215 180.202 69.7103 180.395 70.2981 180.735C70.8859 181.075 71.3728 181.562 71.7127 182.15C72.0526 182.738 72.2456 183.428 72.2456 184.172C72.2456 184.916 72.0526 185.605 71.7127 186.193C71.3728 186.781 70.8859 187.268 70.2981 187.608C69.7103 187.948 69.0215 188.142 68.2777 188.142H51.1983C50.4545 188.142 49.7658 187.948 49.1779 187.608C48.5901 187.268 48.1032 186.781 47.7633 186.193C47.4234 185.605 47.2305 184.916 47.2305 184.172C47.2305 183.428 47.4234 182.738 47.7633 182.15C48.1032 181.562 48.5901 181.075 49.1779 180.735C49.7658 180.395 50.4545 180.202 51.1983 180.202Z" fill="#D8DEED"/>
<path d="M4.89258 120.271C4.89258 117.693 6.98313 115.604 9.55632 115.604H110.095C112.67 115.604 114.758 117.693 114.758 120.271V124.937H4.89258V120.271Z" fill="#E1E5F0"/>
<path d="M11.137 122.391C12.2477 122.391 13.148 121.489 13.148 120.376C13.148 119.264 12.2477 118.362 11.137 118.362C10.0263 118.362 9.12598 119.264 9.12598 120.376C9.12598 121.489 10.0263 122.391 11.137 122.391Z" fill="#FF5645"/>
<path d="M17.6995 122.391C18.8102 122.391 19.7105 121.489 19.7105 120.376C19.7105 119.264 18.8102 118.362 17.6995 118.362C16.5888 118.362 15.6885 119.264 15.6885 120.376C15.6885 121.489 16.5888 122.391 17.6995 122.391Z" fill="#FFCB3D"/>
<path d="M24.4739 122.391C25.5846 122.391 26.4849 121.489 26.4849 120.376C26.4849 119.264 25.5846 118.362 24.4739 118.362C23.3633 118.362 22.4629 119.264 22.4629 120.376C22.4629 121.489 23.3633 122.391 24.4739 122.391Z" fill="#3ABF7C"/>
<path d="M254.505 47.7198C265.386 47.7198 274.207 38.8942 274.207 28.0072C274.207 17.1202 265.386 8.29456 254.505 8.29456C243.623 8.29456 234.802 17.1202 234.802 28.0072C234.802 38.8942 243.623 47.7198 254.505 47.7198Z" fill="#FF5645"/>
<path d="M263.202 34.9443C263.509 35.351 263.691 35.8608 263.691 36.4144C263.691 37.7467 262.633 38.8251 261.33 38.8251C260.027 38.8251 258.968 37.7467 258.968 36.4144C258.968 36.0284 259.057 35.6638 259.215 35.3405H252.047C252.205 35.6638 252.294 36.0284 252.294 36.4144C252.294 37.7467 251.236 38.8251 249.932 38.8251C248.629 38.8251 247.571 37.7467 247.571 36.4144C247.571 35.538 248.029 34.7714 248.713 34.3494L245.73 20.8739H243.715C243.327 20.8739 243.012 20.5511 243.012 20.1527C243.012 19.7544 243.327 19.4316 243.715 19.4316H246.853L247.843 23.9001C247.929 23.8563 248.02 23.8206 248.117 23.7941C248.24 23.7602 248.368 23.743 248.496 23.743H263.314C264.105 23.743 264.747 24.3849 264.747 25.1766C264.747 25.2706 264.737 25.3644 264.719 25.4566L263.483 31.6705C263.349 32.3412 262.761 32.8242 262.077 32.8242H250.2C250.064 32.8242 249.932 32.8051 249.806 32.7692L250.056 33.8981H262.573C262.962 33.8981 263.277 34.221 263.277 34.6193C263.277 34.7362 263.25 34.8466 263.202 34.9443ZM248.965 25.535L250.115 31.0321H261.783L262.877 25.535H248.965ZM249.932 37.3827C250.46 37.3827 250.886 36.9483 250.886 36.4144C250.886 35.8805 250.46 35.4461 249.932 35.4461C249.404 35.4461 248.978 35.8805 248.978 36.4144C248.978 36.9483 249.404 37.3827 249.932 37.3827ZM261.33 37.3827C261.858 37.3827 262.284 36.9483 262.284 36.4144C262.284 35.8805 261.858 35.4461 261.33 35.4461C260.802 35.4461 260.376 35.8805 260.376 36.4144C260.376 36.9483 260.802 37.3827 261.33 37.3827ZM255.238 19.2165V15.5834C255.238 15.1851 255.553 14.8622 255.942 14.8622C256.331 14.8622 256.646 15.1851 256.646 15.5834V19.2165L257.228 18.3524C257.449 18.0246 257.887 17.9425 258.207 18.1689C258.527 18.3952 258.607 18.8444 258.386 19.1721L256.53 21.9258C256.504 21.9663 256.474 22.0045 256.44 22.0396C256.438 22.0411 256.437 22.0425 256.435 22.0439C256.407 22.0725 256.376 22.099 256.342 22.123C256.309 22.1465 256.274 22.1666 256.239 22.1835C256.146 22.2278 256.044 22.2507 255.942 22.2508C255.939 22.2508 255.936 22.2508 255.934 22.2508C255.836 22.2497 255.737 22.2277 255.645 22.1835C255.572 22.1486 255.503 22.1004 255.444 22.0396C255.443 22.0386 255.442 22.0375 255.441 22.0365C255.441 22.0357 255.44 22.035 255.439 22.0343C255.407 22.0007 255.378 21.9643 255.354 21.9258L253.498 19.1721C253.277 18.8444 253.357 18.3952 253.677 18.1689C253.997 17.9425 254.435 18.0246 254.656 18.3524L255.238 19.2165Z" fill="white"/>
<path d="M103.811 240.669C103.159 240.669 102.637 240.217 102.637 239.674V239.313C102.637 238.771 103.185 238.319 103.811 238.319H130.56C131.212 238.319 131.734 238.771 131.734 239.313V239.674C131.734 240.217 131.186 240.669 130.56 240.669H103.811ZM171.401 238.319H213.938C214.586 238.319 215.112 238.845 215.112 239.494C215.112 240.143 214.586 240.669 213.938 240.669H171.401C170.752 240.669 170.226 240.143 170.226 239.494C170.226 238.845 170.752 238.319 171.401 238.319Z" fill="#FFCB3D"/>
<path d="M213.753 238.319H171.517C171.426 238.319 171.337 238.329 171.252 238.349L170.842 221.982L190.573 221.925C192.984 223.502 194.553 224.641 195.278 225.342C196.367 226.394 197.532 227.366 198.8 228.205C201.862 230.215 203.454 230.187 208.112 232.378C209.375 232.956 210.587 233.614 211.774 234.35C212.962 235.087 213.368 235.916 213.702 237.163C213.758 237.371 213.762 237.58 213.791 237.762C213.795 237.995 213.781 238.176 213.753 238.319ZM130.47 238.319H103.928C103.837 238.319 103.747 238.328 103.661 238.346L109.676 222.467L128.361 224.999L130.47 238.319Z" fill="#474961"/>
<path d="M128.995 31.8571C131.254 31.2691 134.827 29.0798 139.713 25.2891C144.226 21.362 147.869 17.9648 150.641 15.0978C153.413 12.2307 156.778 8.04909 160.737 2.55297C160.705 2.55575 160.673 2.55854 160.641 2.56135C161.061 2.51295 161.483 2.47367 161.907 2.4435C170.322 1.8449 176.079 3.59628 179.177 7.69765L179.178 7.69651C185.342 15.9523 181.1 16.4032 180.265 19.1861C179.054 23.2222 176.95 25.9858 173.954 27.4767C172.361 28.46 170.717 29.0563 169.021 29.2655C167.325 29.4748 164.84 29.388 161.567 29.0051L128.985 31.8766L128.995 31.8571Z" fill="#DE3190"/>
<path d="M161.618 72.508C163.541 72.879 165.765 73.5985 167.449 74.99C167.705 75.2627 168.144 75.7048 168.684 76.2717C176.955 85.2211 178.61 93.6587 179.464 98.1267C181.505 108.548 185.28 127.709 188.843 152.582C188.921 153.34 189.066 154.477 189.241 155.835C189.537 158.071 189.806 159.83 190.387 163.47C190.722 165.629 191.121 168.188 191.594 171.088C191.787 172.308 190.021 173.54 188.111 173.645L173.569 174.496C173.577 175.451 173.534 176.129 173.439 176.532C172.044 183.316 151.309 183.589 111.236 177.35C110.392 177.189 110.064 176.873 110.253 176.403L120.151 95.0235C121.423 90.9495 123.74 86.35 127.104 81.2252C129.086 77.976 132.39 75.243 136.547 73.3322C135.989 72.8484 135.557 72.36 135.168 71.9176C133.974 70.5701 133.638 68.6554 133.544 67.3548C133.503 67.0697 133.489 66.8093 133.448 66.5242L132.62 60.8418C131.496 61.2363 130.288 61.4516 129.007 61.4516C123.986 61.4516 122.304 61.1444 118.802 56.8327C116.795 54.361 113.19 48.2399 113.19 45.3641C113.19 37.4716 119.123 33.5953 127.023 33.5953C129.912 33.5953 132.695 34.1139 135.064 35.1579C138.061 33.702 142.163 33.0867 146.686 32.8767L148.171 32.7988C151.373 32.6517 154.317 33.2823 156.831 34.4579C158.3 34.4219 160.068 34.404 162.134 34.404C169.484 34.404 176.66 40.3403 176.66 47.6944C176.66 55.0485 172.781 59.3942 165.43 59.3942C165.195 59.3942 164.96 59.3751 164.727 59.337L164.481 65.2887C164.47 65.5765 164.458 65.8383 164.473 66.1248C164.517 67.4802 164.318 69.1619 163.27 70.6008C162.836 71.1904 162.34 71.8517 161.618 72.508Z" fill="#A339FF"/>
<path d="M147.019 24.1415L147.093 23.978C147.066 23.9533 147.065 23.9272 147.065 23.9272C147 23.6953 146.755 23.499 146.519 23.4852C146.043 23.3795 145.326 23.1556 144.695 22.5873C143.816 21.7706 143.248 20.4147 143.594 19.037C143.917 17.7128 145.112 16.5782 146.364 16.5387C147.069 16.5279 147.66 16.8368 147.741 16.8848C147.742 16.9109 147.769 16.9095 147.769 16.9095C148.309 17.2472 148.992 16.8192 148.933 16.1948L148.323 9.53364C148.301 9.11646 148.595 8.73503 149.01 8.6871C149.765 8.6214 150.489 8.47884 151.235 8.2567C152.038 8.11004 152.607 8.00176 152.788 7.96612C154.055 7.71665 156.353 7.67462 158.429 8.40239C159.311 8.77448 160.176 9.33045 160.924 10.1279C161.117 10.3269 161.312 10.552 161.509 10.8293C161.565 10.9048 161.622 10.9803 161.679 11.0818C162.247 11.941 162.587 12.9428 162.641 13.9858L162.964 18.6489C162.963 19.1196 162.987 19.5889 162.934 20.0623C162.456 25.9177 160.354 30.185 158.206 30.5853C157.948 30.6511 156.548 30.8552 154.861 30.5777C154.702 30.5337 154.835 30.579 152.555 29.9665C152.485 29.9478 152.415 29.9292 152.347 29.9108L152.172 32.7096C152.981 33.0038 153.871 33.3653 154.841 33.7941C154.353 34.7065 153.194 35.3366 151.366 35.6841C148.624 36.2055 146.785 36.2055 144.26 35.5636C143.286 35.3159 142.107 34.651 140.723 33.5687C142.117 33.071 143.348 32.6753 144.416 32.3815L144.725 27.1612L144.604 25.3374L144.762 23.865L147.019 24.1415ZM230.628 38.8458C232.609 38.7763 234.508 39.849 233.904 41.0743C233.409 42.08 231.138 43.3836 227.092 44.9851C227.009 45.07 226.916 45.1579 226.809 45.2493C224.802 46.9775 215.836 52.0988 205.756 61.9344C202.664 64.9521 199.059 68.4994 191.626 68.6207C186.67 68.7017 180.172 66.6559 172.131 62.4835L167.485 59.2795C173.417 58.481 176.53 54.3074 176.53 47.7198C176.53 46.2162 176.281 44.7708 175.822 43.4227L191.611 50.5868C204.038 45.2274 211.801 40.9207 214.901 37.6666C219.551 32.7854 229.016 31.742 231.292 31.3914C233.623 31.0324 235.851 30.1296 237.712 30.1297C240.993 30.1298 235.024 35.5982 230.628 38.8458ZM135.336 180.559L128.361 224.999L109.675 222.596L113.683 177.701C121.708 178.926 128.925 179.879 135.336 180.559ZM164.771 181.279C170.058 180.506 172.947 178.924 173.439 176.532C173.536 176.121 173.579 175.424 173.569 174.44L187.192 173.699L190.444 221.931L170.842 221.983L164.771 181.279ZM125.636 83.7083C123.092 87.8704 121.287 91.6621 120.22 95.0833L119.742 99.0158C116.96 99.9891 113.594 101.037 109.717 102.008C107.838 102.473 107.113 99.4646 108.624 97.431L115.884 91.6566C109.971 87.4698 104.555 82.9759 99.638 78.1749C92.1662 70.88 95.4941 66.4164 96.3814 64.284C97.7836 60.8824 102.26 52.9013 113.22 44.4608C113.202 44.7639 113.192 45.0735 113.192 45.3895C113.192 48.2653 116.797 54.3864 118.804 56.8581C120.363 58.7777 121.561 59.9035 122.854 60.5619C123.577 60.94 124.327 61.1694 125.184 61.3077C120.967 64.9726 116.828 68.5444 113.802 70.7149L125.636 83.7083Z" fill="#F2A98A"/>
<path d="M124.804 61.6512V82.8244L120.628 78.1966V65.2484C121.981 64.0982 123.386 62.8825 124.804 61.6512ZM146.07 89.6134C153.631 93.9281 158.729 102.069 158.729 111.401C158.729 125.245 147.513 136.467 133.677 136.467C119.84 136.467 108.624 125.245 108.624 111.401C108.624 97.5584 119.84 86.3364 133.677 86.3364C136.555 86.3364 139.32 86.8222 141.895 87.7162V47.6262C141.984 46.8827 142.03 46.1348 142.03 45.3895C142.03 44.7274 141.98 44.0936 141.883 43.4879C141.785 41.6269 141.057 40.0212 139.999 38.968C137.666 35.8367 133.568 34.0917 129.007 33.7039V33.4749H137.037C142.12 33.4749 146.07 38.227 146.07 43.9186V89.6134Z" fill="#FFCB3D"/>
<path opacity="0.176986" d="M164.726 59.3607L165.239 46.9518C165.322 45.5374 165.167 44.0832 164.68 42.751C163.447 39.3464 160.693 36.3707 156.98 34.5898C159.009 34.5239 160.849 34.462 162.501 34.404C165.758 34.2897 169.999 36.1496 173.084 39.1973C175.571 41.6541 176.53 44.6599 176.53 47.7198C176.53 55.074 172.791 59.4196 165.44 59.4196C165.201 59.4196 164.963 59.4 164.726 59.3607Z" fill="#444444"/>
<path d="M152.175 32.4545L149.559 28.8912L152.354 29.9161L152.175 32.4545Z" fill="#482D1F"/>
<path d="M161.885 19.4467C161.912 19.1338 162.173 18.8733 162.486 18.8737C162.694 18.8739 162.877 18.9783 162.955 19.3174C163.189 20.152 162.405 21.3766 162.04 20.933C161.806 20.6199 161.833 19.8898 161.885 19.4467ZM157.215 19.468C157.242 19.1551 157.503 18.8947 157.816 18.895C158.024 18.8952 158.207 18.9997 158.285 19.3387C158.519 20.1733 157.735 21.3979 157.37 20.9543C157.136 20.6412 157.163 19.9112 157.215 19.468Z" fill="#482D1F"/>
<path d="M158.924 25.2143C158.741 25.162 158.298 25.0314 158.22 24.7448C158.22 24.6927 158.194 24.6145 158.22 24.5624C158.324 24.3802 158.637 24.4847 159.107 24.5111C159.942 24.5379 160.62 24.4604 160.62 24.4604C160.62 24.4604 160.437 24.9812 160.307 25.1374C160.045 25.5539 159.211 25.2927 158.924 25.2143Z" fill="#482D1F"/>
<path d="M163.759 17.3724C163.237 17.4762 162.429 17.5797 161.725 17.3702C160.551 17.0298 161.699 16.3787 162.769 16.3799C163.29 16.3804 163.681 16.6157 163.916 16.8246C164.124 16.9814 164.02 17.3205 163.759 17.3724ZM158.699 17.5757C158.178 17.6795 157.369 17.783 156.613 17.5474C155.44 17.233 156.588 16.5559 157.657 16.557C158.205 16.5576 158.596 16.7928 158.83 17.0018C159.065 17.1847 158.96 17.5238 158.699 17.5757ZM138.444 16.0216C138.422 14.6686 138.668 13.0272 139.691 11.5511C140.347 10.603 141.155 10.0652 141.509 9.83798C143.432 8.64194 144.991 9.00599 148.936 8.54211C149.248 8.5 149.766 8.42114 150.44 8.33425C150.725 8.29348 150.958 8.25538 151.191 8.21729C151.993 8.0716 152.562 7.964 152.743 7.92858C154.01 7.68064 156.306 7.64111 158.38 8.3706C159.261 8.74337 160.125 9.29988 160.871 10.0976C161.064 10.2967 161.259 10.5218 161.456 10.7991C160.999 11.0577 160.47 11.4245 159.853 11.6129C157.923 12.1823 156.193 12.0361 155.137 11.829C153.393 13.9564 151.673 16.0564 149.955 18.1825C149.884 18.3006 149.81 18.4276 149.734 18.5624L149.449 17.9994C149.449 17.9994 148.99 17.187 148.047 16.6345C147.967 16.5864 147.376 16.2771 146.672 16.2871C145.42 16.3253 144.225 17.4578 143.902 18.7807C143.529 20.1584 144.095 21.514 144.971 22.305C145.847 23.0961 146.924 23.2236 147.267 23.2844L147.386 23.2668C147.36 23.3225 147.334 23.3781 147.307 23.4335C147.363 23.9474 147.535 26.3783 146.159 28.3688C146.284 28.6487 146.352 28.9597 146.349 29.2882L146.344 30.7254C146.342 31.6922 145.732 32.5334 144.808 32.8421L141.598 33.8952C139.313 34.6396 137.648 31.7207 139.445 30.1131C140.141 29.5105 140.8 28.9854 141.374 28.5512C140.997 27.9272 140.438 27.139 139.607 26.1597C136.827 22.88 138.432 16.0049 138.432 16.0049L138.444 16.0216Z" fill="#482D1F"/>
<path d="M160.867 19.9895L160.865 19.9553L160.867 19.9723L160.867 19.9895ZM161.276 22.7479C161.324 23.0446 161.097 23.3331 160.801 23.3822C160.767 23.3872 160.738 23.3915 160.707 23.3954C160.524 23.4191 160.352 23.4302 160.035 23.4421C159.986 23.444 159.799 23.4507 159.797 23.4508C159.694 23.4546 159.609 23.4578 159.522 23.4615C159.378 23.4675 159.257 23.3556 159.251 23.2117C159.245 23.0677 159.357 22.9461 159.5 22.9401C159.589 22.9364 159.674 22.9331 159.778 22.9293C159.781 22.9292 159.967 22.9225 160.015 22.9207C160.318 22.9093 160.477 22.899 160.641 22.8778C160.667 22.8744 160.693 22.8707 160.719 22.8668C160.739 22.8634 160.763 22.8334 160.762 22.8284L160.351 20.0316L160.348 19.9974L160.324 18.458C160.322 18.3139 160.437 18.1953 160.58 18.1931C160.724 18.1909 160.842 18.306 160.844 18.45L160.867 19.9723L161.276 22.7479Z" fill="#482D1F"/>
<path opacity="0.2" d="M230.615 38.8458C232.597 38.7762 234.496 39.8489 233.892 41.0743C233.396 42.08 231.125 43.3836 227.079 44.9851C226.997 45.07 226.903 45.1579 226.797 45.2492C224.789 46.9775 215.824 52.0987 205.744 61.9344C202.651 64.952 199.046 68.4993 191.613 68.6207C186.657 68.7016 180.159 66.6559 172.118 62.4835L167.473 59.2794C173.405 58.4809 176.517 54.3073 176.517 47.7198C176.517 46.2178 176.269 44.774 175.811 43.4271L191.598 50.5867C204.025 45.2274 211.788 40.9206 214.888 37.6665C219.538 32.7854 229.004 31.7419 231.28 31.3914C233.611 31.0323 235.838 30.1296 237.699 30.1296C240.981 30.1298 235.011 35.5981 230.615 38.8458Z" fill="#8C2A00"/>
<path d="M133.736 13.2583C134.049 8.1104 138.47 4.53175 143.939 3.15031C147.003 2.37665 149.58 2.59259 151.671 3.79813C154.346 3.22368 157.366 2.79047 160.733 2.49849C156.774 7.99461 153.408 12.1762 150.636 15.0433C147.864 17.9104 144.217 21.3703 139.695 25.423C134.392 29.4868 130.645 31.659 128.453 31.9396C126.261 32.2203 121.711 31.6284 114.803 30.1639C120.832 23.8573 125.654 19.4113 129.27 16.826C130.564 15.9003 132.068 14.6319 133.736 13.2583Z" fill="#FFCB3D"/>
<path opacity="0.2" d="M133.808 13.3342C134.112 8.17772 138.536 4.59311 144.012 3.21025C147.101 2.42999 149.696 2.65628 151.797 3.88912C148.862 4.51385 146.34 5.30765 144.233 6.27052C140.388 8.02682 136.828 10.8488 133.808 13.3342L133.808 13.3342Z" fill="#8C2A00"/>
<path opacity="0.176986" d="M160.591 72.219C162.704 72.518 165.465 73.2229 167.463 74.8748C167.72 75.1475 168.159 75.5896 168.698 76.1565C176.969 85.1059 178.624 93.5436 179.478 98.0116C181.52 108.433 185.294 127.594 188.858 152.467C188.935 153.225 189.081 154.362 189.256 155.72C189.551 157.956 189.82 159.715 190.402 163.355C190.736 165.514 191.136 168.073 191.608 170.973C191.801 172.193 190.152 173.506 188.242 173.611L173.611 174.438C173.572 166.415 169.779 138.233 162.233 89.8922C161.69 82.437 161.372 76.6346 161.278 72.485C161.04 72.4045 160.813 72.3148 160.591 72.219Z" fill="#444444"/>
<path opacity="0.2" d="M133.677 130.983C122.867 130.983 114.104 122.216 114.104 111.401C114.104 100.587 122.867 91.8193 133.677 91.8193C144.486 91.8193 153.249 100.587 153.249 111.401C153.249 122.216 144.486 130.983 133.677 130.983ZM133.677 126.284C141.892 126.284 148.552 119.621 148.552 111.401C148.552 103.182 141.892 96.519 133.677 96.519C125.462 96.519 118.802 103.182 118.802 111.401C118.802 119.621 125.462 126.284 133.677 126.284ZM133.677 121.584C128.056 121.584 123.499 117.025 123.499 111.401C123.499 105.778 128.056 101.219 133.677 101.219C139.298 101.219 143.854 105.778 143.854 111.401C143.854 117.025 139.298 121.584 133.677 121.584ZM133.677 116.623C136.559 116.623 138.896 114.285 138.896 111.401C138.896 108.517 136.559 106.18 133.677 106.18C130.794 106.18 128.458 108.517 128.458 111.401C128.458 114.285 130.794 116.623 133.677 116.623Z" fill="#8C2A00"/>
</svg>
