<svg width="310" height="283" viewBox="0 0 310 283" fill="none" xmlns="http://www.w3.org/2000/svg">
<path d="M93.6929 49.6859C103.445 47.0598 113.477 52.8388 116.1 62.5938C118.722 72.3488 112.943 82.3856 103.191 85.0117C93.4388 87.6378 83.407 81.8588 80.7842 72.1038C78.1614 62.3488 83.9408 52.312 93.6929 49.6859Z" fill="#E1E5F0"/>
<path d="M42.4344 103.349L85.8035 162.004L105.099 147.918L79.0263 99.5939L42.4344 103.349ZM10.4344 56.5165L31.9517 88.1018L43.9977 52.3438L10.4344 56.5165ZM37.3012 91.9406L72.9814 90.1502L61.8173 48.6493L50.9631 51.5692L37.3012 91.9406ZM83.8762 98.0074L112.26 142.252L125.744 132.078L105.128 96.5977L83.8762 98.0074ZM116.459 95.2214L134.609 127.637L153.526 113.4L149.655 90.8432L116.459 95.2214ZM162.118 125.112L185.159 124.266L185.781 109.538L158.671 111.943L162.118 125.112ZM190.601 123.821L211.162 125.058L213.167 110.458L190.589 109.533L190.601 123.821ZM158.035 107.62L188.708 104.384L216.964 106.266L223.741 84.8495L155.941 90.1296L158.035 107.62ZM125.361 81.0442L150.42 80.0082L145.263 60.8365L124.21 63.2088L125.361 81.0442ZM124.589 57.7894L143.68 55.4651L144.354 39.1864L119.511 42.8555L124.589 57.7894ZM159.011 77.7802L188.431 74.3235L184.252 31.6978L155.641 36.4272L159.011 77.7802ZM193.455 73.3023L226.495 70.9947L231.533 41.9225L190.35 31.0833L193.455 73.3023ZM94.6545 52.8469C86.6728 54.994 81.9421 63.2019 84.0882 71.1797C86.2343 79.1575 94.4445 83.8841 102.426 81.737C110.408 79.5899 115.138 71.382 112.992 63.4042C110.846 55.4265 102.636 50.6998 94.6545 52.8469ZM217.994 124.367L243.057 117.245C243.754 117.047 244.242 116.422 244.265 115.699C244.294 114.781 243.573 114.014 242.655 113.985L218.71 113.235L217.994 124.367Z" fill="#F2F6FB"/>
<path d="M127.786 122.056C128.273 122.912 127.973 124 127.118 124.487C126.262 124.973 125.174 124.674 124.688 123.817L121.518 118.237C121.032 117.381 121.331 116.293 122.187 115.806C123.043 115.32 124.131 115.619 124.617 116.475L127.786 122.056ZM121.447 110.895C121.933 111.751 121.634 112.84 120.778 113.326C119.923 113.813 118.835 113.513 118.349 112.657L115.179 107.077C114.693 106.221 114.992 105.133 115.848 104.646C116.703 104.16 117.791 104.459 118.277 105.315L121.447 110.895ZM115.086 99.7359C115.577 100.589 115.284 101.679 114.431 102.171C113.578 102.662 112.488 102.369 111.997 101.515L108.796 95.9535C108.305 95.1003 108.598 94.0102 109.451 93.5188C110.303 93.0274 111.393 93.3207 111.884 94.174L115.086 99.7359ZM107.696 91.4718C106.717 91.5694 105.844 90.8543 105.746 89.8745C105.649 88.8947 106.363 88.0213 107.343 87.9236L113.726 87.2873C114.706 87.1897 115.579 87.9048 115.676 88.8846C115.774 89.8644 115.059 90.7379 114.08 90.8355L107.696 91.4718ZM120.463 90.1992C119.484 90.2968 118.611 89.5816 118.513 88.6018C118.416 87.622 119.13 86.7486 120.11 86.651L126.493 86.0146C127.473 85.917 128.346 86.6322 128.443 87.612C128.541 88.5918 127.826 89.4652 126.847 89.5628L120.463 90.1992ZM133.23 88.9265C132.251 89.0241 131.378 88.309 131.28 87.3292C131.183 86.3494 131.898 85.4759 132.877 85.3783L139.26 84.742C140.24 84.6444 141.113 85.3595 141.21 86.3393C141.308 87.3191 140.593 88.1925 139.614 88.2902L133.23 88.9265ZM145.997 87.6538C145.018 87.7514 144.145 87.0363 144.047 86.0565C143.95 85.0767 144.665 84.2033 145.644 84.1056L152.027 83.4693C153.007 83.3717 153.88 84.0868 153.977 85.0666C154.075 86.0464 153.36 86.9199 152.381 87.0175L145.997 87.6538ZM158.764 86.3812C157.785 86.4788 156.912 85.7636 156.814 84.7838C156.717 83.804 157.432 82.9306 158.411 82.833L164.795 82.1966C165.774 82.099 166.647 82.8142 166.744 83.794C166.842 84.7738 166.127 85.6472 165.148 85.7448L158.764 86.3812ZM171.531 85.1085C170.552 85.2061 169.679 84.491 169.582 83.5112C169.484 82.5314 170.199 81.6579 171.178 81.5603L177.562 80.924C178.541 80.8264 179.414 81.5415 179.511 82.5213C179.609 83.5011 178.894 84.3745 177.915 84.4722L171.531 85.1085ZM184.298 83.8358C183.319 83.9334 182.446 83.2183 182.349 82.2385C182.251 81.2587 182.966 80.3853 183.945 80.2876L190.329 79.6513C191.308 79.5537 192.181 80.2688 192.278 81.2486C192.376 82.2284 191.661 83.1019 190.682 83.1995L184.298 83.8358ZM197.031 82.6848C196.049 82.7577 195.195 82.0207 195.122 81.0387C195.049 80.0568 195.786 79.2017 196.767 79.1289L203.165 78.6541C204.146 78.5813 205.001 79.3182 205.074 80.3002C205.146 81.2821 204.41 82.1372 203.428 82.2101L197.031 82.6848ZM209.826 81.7353C208.845 81.8081 207.99 81.0711 207.917 80.0892C207.844 79.1072 208.581 78.2521 209.562 78.1793L215.96 77.7045C216.941 77.6317 217.796 78.3687 217.869 79.3506C217.942 80.3326 217.205 81.1877 216.224 81.2605L209.826 81.7353ZM222.621 80.7857C221.64 80.8586 220.785 80.1216 220.712 79.1396C220.639 78.1577 221.376 77.3026 222.357 77.2297L224.323 77.0839L224.366 77.0812L228.804 76.8592C229.787 76.81 230.624 77.5674 230.673 78.5508C230.722 79.5342 229.965 80.3713 228.982 80.4205L224.544 80.6425L224.587 80.6398L222.621 80.7857ZM232.447 73.3847C232.27 74.3533 231.342 74.9949 230.374 74.8177C229.406 74.6406 228.764 73.7118 228.941 72.7432L230.095 66.4296C230.273 65.461 231.201 64.8194 232.169 64.9966C233.137 65.1737 233.778 66.1025 233.601 67.0711L232.447 73.3847ZM234.755 60.7575C234.578 61.7261 233.65 62.3676 232.682 62.1905C231.714 62.0134 231.073 61.0846 231.25 60.116L232.404 53.8023C232.581 52.8338 233.509 52.1922 234.477 52.3693C235.445 52.5465 236.087 53.4753 235.909 54.4438L234.755 60.7575ZM124.778 137.437C122.023 137.437 119.789 135.202 119.789 132.445C119.789 129.688 122.023 127.453 124.778 127.453C127.534 127.453 129.768 129.688 129.768 132.445C129.768 135.202 127.534 137.437 124.778 137.437ZM231.46 48.5313C228.704 48.5313 226.47 46.2963 226.47 43.5393C226.47 40.7823 228.704 38.5472 231.46 38.5472C234.215 38.5472 236.449 40.7823 236.449 43.5393C236.449 46.2963 234.215 48.5313 231.46 48.5313Z" fill="#D8DEED"/>
<path d="M100.394 69.358C107.78 56.9618 111.473 48.5967 111.473 44.2625C111.473 37.2988 105.782 31.6536 98.7613 31.6536C91.7409 31.6536 86.0498 37.2988 86.0498 44.2625C86.0498 48.5967 89.7427 56.9618 97.1286 69.358H97.1286C97.6661 70.2602 98.8328 70.5555 99.7345 70.0177C100.006 69.856 100.232 69.6293 100.394 69.358Z" fill="#474BFF"/>
<path d="M98.8802 53.048C102.948 53.048 106.246 49.6955 106.246 45.56C106.246 41.4244 102.948 38.0719 98.8802 38.0719C94.8123 38.0719 91.5146 41.4244 91.5146 45.56C91.5146 49.6955 94.8123 53.048 98.8802 53.048Z" fill="white"/>
<path d="M216.253 37.3605C216.253 36.3092 217.106 35.4569 218.155 35.4569H269.712C270.762 35.4569 271.613 36.3085 271.613 37.3605V116.516C271.613 117.568 270.76 118.42 269.712 118.42H218.155C217.104 118.42 216.253 117.568 216.253 116.516V37.3605Z" fill="#E1E5F0"/>
<path d="M244.204 114.624C242.555 114.624 241.219 113.289 241.219 111.642C241.219 109.995 242.555 108.66 244.204 108.66C245.853 108.66 247.189 109.995 247.189 111.642C247.189 113.289 245.853 114.624 244.204 114.624ZM243.661 41.9639C243.212 41.9639 242.847 41.5997 242.847 41.1505C242.847 40.7013 243.212 40.3372 243.661 40.3372C244.111 40.3372 244.475 40.7013 244.475 41.1505C244.475 41.5997 244.111 41.9639 243.661 41.9639ZM218.866 45.2035C218.866 44.9409 219.078 44.7279 219.34 44.7279H268.325C268.587 44.7279 268.799 44.9393 268.799 45.2035V84.4264C268.799 84.689 268.587 84.902 268.325 84.902H219.34C219.079 84.902 218.866 84.6907 218.866 84.4264V45.2035Z" fill="#F2F6FB"/>
<path fill-rule="evenodd" clip-rule="evenodd" d="M218.967 85.3258C218.967 85.0626 219.179 84.8492 219.441 84.8492H268.425C268.687 84.8492 268.9 85.062 268.9 85.3258V105.529C268.9 105.793 268.688 106.006 268.425 106.006H219.441C219.179 106.006 218.967 105.793 218.967 105.529V85.3258ZM226.945 49.72H261.159C262.996 49.72 264.485 51.21 264.485 53.048C264.485 54.886 262.996 56.376 261.159 56.376H226.945C225.108 56.376 223.619 54.886 223.619 53.048C223.619 51.21 225.108 49.72 226.945 49.72Z" fill="white"/>
<path d="M258.783 84.744V80.7028H259.739C260.456 80.7028 261.396 79.8042 261.396 78.8036C261.396 77.803 260.811 77.7521 260.302 75.8708C260.032 74.8752 259.209 74.4309 257.832 74.5378C256.456 74.4309 255.633 74.8752 255.363 75.8708C254.854 77.7521 254.268 77.803 254.268 78.8036C254.268 79.8042 255.209 80.7028 255.926 80.7028C256.404 80.7028 257.434 80.7028 259.017 80.7028H256.648H257.357V84.744H241.676L243.376 72.8272C243.509 71.8902 244.311 71.1942 245.257 71.1942H259.916C260.917 71.1942 261.747 71.9716 261.813 72.9714L262.584 84.744H258.783ZM227.42 84.744L228.6 65.5302C228.662 64.5271 229.493 63.7451 230.498 63.7451H237.993C239.031 63.7451 239.876 64.5772 239.894 65.6148L240.216 84.744H227.42ZM236.924 67.8662C236.661 67.8662 236.449 68.079 236.449 68.3416V70.7188C236.449 70.9813 236.661 71.1942 236.924 71.1942H238.112C238.374 71.1942 238.587 70.9813 238.587 70.7188V68.3416C238.587 68.079 238.374 67.8662 238.112 67.8662H236.924ZM232.885 67.8662C232.622 67.8662 232.409 68.079 232.409 68.3416V70.7188C232.409 70.9813 232.622 71.1942 232.885 71.1942H234.073C234.335 71.1942 234.548 70.9813 234.548 70.7188V68.3416C234.548 68.079 234.335 67.8662 234.073 67.8662H232.885ZM236.924 73.3336C236.661 73.3336 236.449 73.5465 236.449 73.8091V76.1862C236.449 76.4488 236.661 76.6617 236.924 76.6617H238.112C238.374 76.6617 238.587 76.4488 238.587 76.1862V73.8091C238.587 73.5465 238.374 73.3336 238.112 73.3336H236.924ZM232.885 73.3336C232.622 73.3336 232.409 73.5465 232.409 73.8091V76.1862C232.409 76.4488 232.622 76.6617 232.885 76.6617H234.073C234.335 76.6617 234.548 76.4488 234.548 76.1862V73.8091C234.548 73.5465 234.335 73.3336 234.073 73.3336H232.885ZM236.924 78.8011C236.661 78.8011 236.449 79.014 236.449 79.2765V81.6537C236.449 81.9163 236.661 82.1291 236.924 82.1291H238.112C238.374 82.1291 238.587 81.9163 238.587 81.6537V79.2765C238.587 79.014 238.374 78.8011 238.112 78.8011H236.924ZM232.885 78.8011C232.622 78.8011 232.409 79.014 232.409 79.2765V81.6537C232.409 81.9163 232.622 82.1291 232.885 82.1291H234.073C234.335 82.1291 234.548 81.9163 234.548 81.6537V79.2765C234.548 79.014 234.335 78.8011 234.073 78.8011H232.885ZM249.754 73.3336C249.492 73.3336 249.279 73.5465 249.279 73.8091V76.1862C249.279 76.4488 249.492 76.6617 249.754 76.6617H250.942C251.205 76.6617 251.417 76.4488 251.417 76.1862V73.8091C251.417 73.5465 251.205 73.3336 250.942 73.3336H249.754ZM245.715 73.3336C245.453 73.3336 245.24 73.5465 245.24 73.8091V76.1862C245.24 76.4488 245.453 76.6617 245.715 76.6617H246.903C247.165 76.6617 247.378 76.4488 247.378 76.1862V73.8091C247.378 73.5465 247.165 73.3336 246.903 73.3336H245.715ZM249.754 78.8011C249.492 78.8011 249.279 79.014 249.279 79.2765V81.6537C249.279 81.9163 249.492 82.1291 249.754 82.1291H250.942C251.205 82.1291 251.417 81.9163 251.417 81.6537V79.2765C251.417 79.014 251.205 78.8011 250.942 78.8011H249.754ZM245.715 78.8011C245.453 78.8011 245.24 79.014 245.24 79.2765V81.6537C245.24 81.9163 245.453 82.1291 245.715 82.1291H246.903C247.165 82.1291 247.378 81.9163 247.378 81.6537V79.2765C247.378 79.014 247.165 78.8011 246.903 78.8011H245.715Z" fill="#A339FF"/>
<path d="M226.945 91.558H259.971C260.627 91.558 261.159 92.0902 261.159 92.7466C261.159 93.403 260.627 93.9352 259.971 93.9352H226.945C226.289 93.9352 225.757 93.403 225.757 92.7466C225.757 92.0902 226.289 91.558 226.945 91.558ZM226.945 96.3124H259.971C260.627 96.3124 261.159 96.8445 261.159 97.5009C261.159 98.1574 260.627 98.6895 259.971 98.6895H226.945C226.289 98.6895 225.757 98.1574 225.757 97.5009C225.757 96.8445 226.289 96.3124 226.945 96.3124ZM226.232 51.384H230.271V52.0971H226.232V51.384ZM226.232 52.8103H230.271V53.5234H226.232V52.8103ZM226.232 54.2366H230.271V54.9497H226.232V54.2366ZM260.273 53.3674L261.634 54.7493L261.171 55.1874L259.815 53.8104C259.523 54.0042 259.166 54.1177 258.783 54.1177C257.805 54.1177 257.001 53.38 257.001 52.4537C257.001 51.5274 257.805 50.7897 258.783 50.7897C259.76 50.7897 260.565 51.5274 260.565 52.4537C260.565 52.7924 260.457 53.106 260.273 53.3674ZM258.783 53.4046C259.38 53.4046 259.852 52.9716 259.852 52.4537C259.852 51.9358 259.38 51.5028 258.783 51.5028C258.186 51.5028 257.714 51.9358 257.714 52.4537C257.714 52.9716 258.186 53.4046 258.783 53.4046Z" fill="#E1E5F0"/>
<path d="M205.508 247.173C204.852 247.153 204.336 246.606 204.355 245.95C204.375 245.294 204.922 244.777 205.578 244.797L227.723 245.451C228.379 245.47 228.895 246.018 228.875 246.674C228.856 247.33 228.309 247.846 227.653 247.827L205.508 247.173ZM172.417 227.544C171.992 227.043 172.054 226.293 172.554 225.869C173.054 225.444 173.804 225.505 174.228 226.006L187.739 241.933C188.164 242.433 188.103 243.183 187.602 243.608C187.102 244.033 186.352 243.971 185.928 243.471L172.417 227.544ZM158.346 193.311L150.771 210.956C163.607 216.784 172.535 229.72 172.535 244.743C172.535 265.223 155.94 281.826 135.47 281.826C114.999 281.826 98.4043 265.223 98.4043 244.743C98.4043 224.262 114.999 207.659 135.47 207.659C140.084 207.659 144.501 208.502 148.576 210.044L161.987 178.806C162.246 178.203 162.944 177.924 163.547 178.183C164.15 178.442 164.429 179.141 164.17 179.744L159.667 190.234H244.131L235.63 172.99C235.219 173.028 234.803 173.047 234.381 173.047C233.725 173.047 233.193 172.515 233.193 171.859C233.193 171.202 233.725 170.67 234.381 170.67C234.416 170.67 234.451 170.67 234.486 170.67L231.581 164.777C231.291 164.189 231.533 163.476 232.121 163.186C232.71 162.895 233.422 163.137 233.712 163.726L236.985 170.365C240.78 169.452 243.529 166.601 243.529 163.325C243.529 159.352 239.446 155.979 234.381 155.979H212.309C211.652 155.979 211.121 155.447 211.121 154.791C211.121 154.134 211.652 153.602 212.309 153.602H234.381C240.669 153.602 245.905 157.928 245.905 163.325C245.905 167.637 242.589 171.248 238.057 172.539L257 210.967C261.671 208.842 266.86 207.659 272.326 207.659C292.796 207.659 309.391 224.262 309.391 244.743C309.391 265.223 292.796 281.826 272.326 281.826C251.855 281.826 235.26 265.223 235.26 244.743C235.26 230.576 243.2 218.265 254.87 212.02L245.636 193.287L202.128 241.663C201.65 242.194 200.816 242.186 200.348 241.648L158.346 193.311ZM258.052 213.101L273.391 244.217C273.681 244.805 273.44 245.518 272.851 245.808C272.263 246.099 271.55 245.857 271.26 245.268L255.922 214.154C245.037 220.009 237.636 231.511 237.636 244.743C237.636 263.91 253.167 279.449 272.326 279.449C291.484 279.449 307.015 263.91 307.015 244.743C307.015 225.575 291.484 210.036 272.326 210.036C267.238 210.036 262.405 211.132 258.052 213.101ZM160.886 192.611L201.26 239.074L243.048 192.611H160.886ZM149.832 213.141L136.561 244.055C136.302 244.658 135.604 244.937 135.001 244.678C134.398 244.419 134.119 243.72 134.378 243.117L147.637 212.231C143.851 210.812 139.751 210.036 135.47 210.036C116.311 210.036 100.78 225.575 100.78 244.743C100.78 263.91 116.311 279.449 135.47 279.449C154.628 279.449 170.159 263.91 170.159 244.743C170.159 230.7 161.823 218.605 149.832 213.141Z" fill="#D8DEED"/>
<path d="M272.206 251.969C268.204 251.969 264.96 248.776 264.96 244.838C264.96 240.899 268.204 237.706 272.206 237.706C276.209 237.706 279.453 240.899 279.453 244.838C279.453 248.776 276.209 251.969 272.206 251.969ZM135.469 252.112C131.401 252.112 128.104 248.812 128.104 244.742C128.104 240.673 131.401 237.373 135.469 237.373C139.537 237.373 142.835 240.673 142.835 244.742C142.835 248.812 139.537 252.112 135.469 252.112ZM200.096 252.92C193.403 252.92 187.978 247.492 187.978 240.796C187.978 234.101 193.403 228.673 200.096 228.673C206.788 228.673 212.213 234.101 212.213 240.796C212.213 247.492 206.788 252.92 200.096 252.92ZM157.922 176.851H178.118C180.939 176.851 183.226 179.139 183.226 181.962C183.226 184.784 180.939 187.073 178.118 187.073H157.922C155.101 187.073 152.814 184.784 152.814 181.962C152.814 179.139 155.101 176.851 157.922 176.851Z" fill="#E1E5F0"/>
<path d="M211.493 244.977C211.732 244.295 211.916 243.583 212.038 242.848L230.539 243.351C231.037 243.356 231.44 243.816 231.437 244.387L231.441 244.53C231.416 245.078 230.997 245.498 230.499 245.494L211.493 244.977ZM188.749 243.096L169.456 220.703C169.1 220.299 169.124 219.657 169.551 219.301L169.646 219.206C169.908 218.992 170.24 218.92 170.573 219.015C170.763 219.039 170.906 219.158 171.048 219.301L190.038 241.219L202.767 244.047C203.314 244.166 203.623 244.689 203.551 245.212L203.528 245.354C203.385 245.877 202.862 246.21 202.34 246.115L188.749 243.096Z" fill="#DE3190"/>
<path d="M230.952 243.468C230.828 243.395 230.688 243.353 230.54 243.351L212.06 242.848C212.007 243.195 211.941 243.536 211.861 243.872L211.833 243.87C212.081 242.903 212.214 241.889 212.214 240.844C212.214 238.009 211.241 235.402 209.612 233.337L212.647 229.957C213.609 230.946 221.793 235.743 225.979 237.833C227.116 238.388 228.207 239.016 229.277 239.692C229.793 240.174 230.707 241.141 230.985 242.296C231.039 242.485 231.022 242.676 231.051 242.841C231.048 243.065 231.01 243.275 230.952 243.468ZM170.616 219.022L181.574 208.933L193.454 222.412L193.597 223.886L193.953 227.665C193.905 229.044 193.929 230.399 194.119 231.778C194.214 232.396 194.309 232.966 194.428 233.466C194.528 233.873 194.638 234.253 194.76 234.624C195.922 235.39 197.254 236.183 199.228 237.721C200.249 238.481 201.176 239.313 202.103 240.193C202.53 240.764 203.219 241.905 203.267 243.069C203.267 243.26 203.243 243.45 203.219 243.616C203.179 243.808 203.115 243.985 203.036 244.146C202.955 244.102 202.865 244.068 202.768 244.047L190.038 241.219L171.049 219.301C170.917 219.169 170.785 219.058 170.616 219.022ZM205.952 230.175L209.376 230.045L207.983 231.592C207.666 231.321 207.351 231.075 207.036 230.854C206.722 230.634 206.36 230.407 205.952 230.175Z" fill="#474961"/>
<path d="M217.083 192.588H223.11C223.047 193.486 222.975 194.435 222.904 195.462C222.614 199.329 223.973 205.935 225.469 212.133L209.359 230.046L205.876 230.186C204.158 229.251 202.189 228.721 200.096 228.721C198.822 228.721 197.594 228.917 196.44 229.282C196.153 228.841 195.994 228.309 196.021 227.743L196.232 223.32C195.638 223.227 194.991 222.936 194.368 222.593C187.477 219.715 182.411 217.195 179.169 215.031C176.82 213.464 173.5 210.389 169.208 205.805C167.892 204.075 167.507 202.759 168.052 201.858L194.145 181.573C185.846 181.841 179.297 181.877 174.497 181.679C164.645 181.274 159.084 178.256 156.399 171.101C155.045 167.488 155.913 163.989 156.257 162.401C158.49 152.084 170.308 151.3 172.403 151.228C173.799 151.181 180.275 151.662 191.832 152.673C210.46 154.234 220.611 155.321 222.284 155.935C223.085 156.228 224.102 156.73 224.267 156.944C233.262 162.052 228.611 171.6 228.16 172.29L228.033 172.337C227.081 175.038 225.614 178.027 224.253 180.554C223.789 183.954 223.47 187.049 223.26 190.21H218.513C218.048 190.979 217.571 191.773 217.083 192.588ZM226.155 214.924C227.614 220.754 228.984 225.748 228.876 227.022C228.781 228.403 227.588 229.47 226.209 229.446L224.806 229.423L212.675 229.912L226.155 214.924Z" fill="#3ABF7C"/>
<path opacity="0.176986" d="M217.112 192.539H223.148C223.085 193.438 223.014 194.386 222.943 195.413C222.652 199.281 224.012 205.887 225.507 212.085L209.397 229.997L205.914 230.138C204.196 229.203 202.227 228.672 200.135 228.672C198.86 228.672 197.632 228.869 196.479 229.234C196.191 228.792 196.033 228.261 196.06 227.694L196.268 223.326C196.95 223.424 197.56 223.255 197.983 222.593C199.595 220.069 200.895 218.827 203.396 215.031C208.097 207.868 212.981 199.442 217.112 192.539ZM224.296 180.474C223.83 183.887 223.509 186.991 223.299 190.162H218.542C219.394 188.757 220.204 187.438 220.965 186.233C221.364 185.593 222.767 183.32 224.296 180.474V180.474ZM226.194 214.875C227.653 220.706 229.023 225.7 228.914 226.974C228.82 228.355 227.626 229.422 226.248 229.398L224.845 229.375L212.714 229.864L226.194 214.875Z" fill="#444444"/>
<path d="M195.201 180.588L200.205 174.303C200.369 174.098 200.335 173.799 200.13 173.635C199.924 173.471 199.625 173.505 199.462 173.711L194.458 179.996C194.295 180.201 194.328 180.5 194.534 180.664C194.739 180.827 195.038 180.794 195.201 180.588Z" fill="#482D1F"/>
<path d="M202.977 125.144C205.859 128.868 203.953 133.128 202.611 135.279C202.897 135.318 203.137 135.542 203.181 135.838L203.225 136.136C203.303 136.511 203.046 136.876 202.674 136.931L200.577 137.29L199.544 141.721L199.479 141.951L196.815 153.47L196.296 155.719C196.263 155.906 196.211 155.828 196.155 156.011C196.094 156.217 167.738 157.391 167.513 156.892C167.517 156.869 167.494 156.865 167.498 156.841C167.41 156.657 167.326 156.449 167.242 156.241C166.367 153.963 166.1 151.382 166.696 148.833L170.198 133.765L164.129 131.056C163.53 130.789 163.261 130.086 163.528 129.487C163.796 128.888 164.498 128.619 165.096 128.886L165.129 128.901C164.601 126.214 164.336 121.025 169.384 118.782C171.45 115.967 173.437 113.785 176.523 112.52C179.334 111.392 182.113 111.507 184.283 111.94C185.485 111.857 186.719 111.948 187.952 112.234L193.276 113.491C198.953 114.779 202.797 119.668 202.977 125.144Z" fill="#DE3190"/>
<path opacity="0.176986" d="M202.921 125.034C204.279 126.727 204.631 128.529 204.482 130.192C204.297 132.261 203.336 134.115 202.575 135.276C202.878 135.282 203.13 135.475 203.177 135.788L203.227 136.202C203.306 136.578 203.017 136.877 202.645 136.932C201.746 137.056 201.036 137.157 200.515 137.236L202.492 128.739L202.59 128.322C202.852 127.218 202.958 126.115 202.921 125.034Z" fill="#444444"/>
<path d="M193.668 109.659L192.561 113.881C192.409 114.461 191.847 114.837 191.252 114.756C189.911 114.573 188.979 114.386 188.457 114.193C187.422 113.811 186.63 113.376 186.081 112.886C185.813 112.647 185.703 112.278 185.795 111.932L187.13 106.924L187.672 104.861L188.123 102.817C187.936 102.685 187.748 102.527 187.574 102.336C186.838 101.504 186.595 98.1304 187.023 96.8953C187.452 95.7315 191.994 97.4692 191.994 96.899C191.995 96.5189 192.02 94.4916 192.069 90.8172C192.07 90.4371 192.379 90.1285 192.759 90.1288C193.613 90.1294 194.421 90.0587 195.323 89.8456C195.418 89.8456 195.513 89.8219 195.608 89.822C196.416 89.7038 200.928 89.3033 203.396 92.5836C203.633 92.8688 203.823 93.1778 204.012 93.5343C204.463 94.3662 204.676 95.3166 204.628 96.2669L204.459 100.519C204.435 100.947 204.387 101.374 204.316 101.802C203.315 107.052 201.009 110.709 199.014 110.873C198.777 110.897 197.495 110.944 195.999 110.539C195.88 110.491 195.975 110.562 193.981 109.777C193.874 109.737 193.769 109.698 193.668 109.659ZM198.786 144.773L199.452 141.892L199.517 141.663L200.551 137.225L202.21 136.987L203.765 144.344C209.696 146.526 214.201 148.216 217.279 149.415C218.669 149.956 219.532 150.388 219.869 150.712C222.057 151.261 224.452 152.197 227.053 153.52C227.205 153.597 227.304 153.749 227.313 153.919C227.326 154.181 227.125 154.404 226.863 154.418L216.719 154.948L196.123 156.108C182.46 156.809 173.704 157.216 169.855 157.329C168.804 157.51 165.254 157.633 161.625 155.82C161.169 155.592 160.294 154.92 159.517 154.07C158.998 153.503 158.658 152.31 158.496 150.491C158.261 147.542 160.549 142.965 164.442 135.26C165.051 134.064 165.641 132.922 166.212 131.837L182.946 139.306C182.408 140.189 181.894 141.031 181.442 141.765C186.137 142.533 192.909 143.614 198.786 144.773Z" fill="#F2A98A"/>
<path d="M204.414 100.84C204.57 101.432 204.719 101.923 204.928 102.443C205.172 103.084 205.559 104.2 206.088 105.788C206.442 106.876 206.48 107.614 206.202 108.003C205.907 108.43 202.073 108.954 201.72 108.93C201.656 108.925 201.592 108.921 201.529 108.917C202.684 107.317 203.715 104.792 204.3 101.724C204.35 101.429 204.388 101.135 204.414 100.84ZM205.178 99.2736C204.705 99.3765 203.946 99.4367 203.325 99.257C202.25 98.9187 203.31 98.3309 204.284 98.3621C204.759 98.3779 205.119 98.5857 205.336 98.7721C205.505 98.9355 205.415 99.2221 205.178 99.2736ZM200.04 99.117C199.566 99.22 198.808 99.3039 198.139 99.1013C197.065 98.7867 198.123 98.1752 199.098 98.2064C199.597 98.2218 199.957 98.4295 200.174 98.6159C200.367 98.779 200.276 99.0656 200.04 99.117ZM189.706 103.824L190.105 108.116C190.085 108.115 190.065 108.114 190.045 108.113C190.045 108.118 190.046 108.121 190.046 108.121C190.046 108.121 190.042 108.118 190.035 108.113C185.223 107.911 181.975 106.329 179.76 105.365C179.374 105.198 178.926 104.951 178.674 104.465C178.326 103.8 178.563 103.04 178.868 102.12C179.056 101.569 179.37 100.77 179.955 99.909C180.511 99.1256 181.254 97.9521 182.211 96.362C182.259 95.0702 182.584 93.4243 183.749 92.0337C184.438 91.2267 185.223 90.7997 185.555 90.6337C187.385 89.7088 188.786 90.1611 192.396 90.0687C193.132 90.0455 196.21 89.7524 196.305 89.7524C197.112 89.6343 201.054 89.4108 203.38 92.5713C203.501 92.7287 203.623 92.8968 203.745 93.0755C203.018 93.4668 202.44 93.7019 202.013 93.7807C200.231 94.1357 198.688 93.8496 197.738 93.5639C197.476 94.1337 197.096 94.7747 196.597 95.3918C195.226 97.1943 193.548 98.1188 192.449 98.5879C192.163 98.2944 191.67 97.8142 191.166 97.4316C191.095 97.384 190.596 97.0512 189.955 97.0032C188.815 96.9074 187.627 97.8328 187.199 98.9962C186.747 100.207 187.126 101.49 187.838 102.298C188.47 103.015 189.308 103.265 189.688 103.362C189.693 103.514 189.699 103.668 189.706 103.824Z" fill="#482D1F"/>
<path d="M203.032 100.79C203.075 100.504 203.309 100.263 203.594 100.282C203.784 100.279 203.952 100.371 204.029 100.702C204.232 101.459 203.514 102.587 203.174 102.165C202.955 101.86 202.968 101.195 203.032 100.79ZM199.202 100.684C199.245 100.398 199.478 100.157 199.764 100.176C199.954 100.172 200.121 100.265 200.198 100.596C200.401 101.352 199.684 102.48 199.344 102.058C199.101 101.754 199.138 101.088 199.202 100.684Z" fill="#482D1F"/>
<path d="M200.806 105.66C200.638 105.615 200.232 105.502 200.156 105.218C200.156 105.17 200.131 105.099 200.154 105.051C200.246 104.882 200.557 104.973 200.985 105.013C201.746 105.048 202.364 104.991 202.364 104.991C202.364 104.991 202.181 105.47 202.065 105.615C201.833 105.977 201.068 105.727 200.806 105.66Z" fill="#482D1F"/>
<path d="M202.03 103.447C202.027 103.447 202.002 103.449 201.977 103.451C201.74 103.47 201.564 103.475 200.927 103.486C200.795 103.488 200.691 103.596 200.693 103.728C200.695 103.859 200.803 103.964 200.935 103.961C201.584 103.951 201.764 103.945 202.016 103.925C202.042 103.923 202.069 103.92 202.096 103.918C202.375 103.868 202.549 103.624 202.545 103.364L202.542 103.336L202.193 100.813L202.194 99.4259C202.194 99.2945 202.087 99.188 201.956 99.1879C201.824 99.1879 201.718 99.2943 201.717 99.4256L201.717 100.829L201.719 100.862L202.068 103.382C202.065 103.417 202.044 103.445 202.03 103.447Z" fill="#482D1F"/>
<path d="M193.028 112.143L191.07 108.911L193.823 109.698L193.028 112.143Z" fill="#482D1F"/>
<path opacity="0.2" d="M198.928 144.233L199.47 141.894L199.534 141.665L200.569 137.229L202.228 136.991L203.783 144.345C209.716 146.526 214.222 148.215 217.301 149.413C219.097 150.112 220.089 150.625 219.829 150.857C218.325 150.47 216.918 150.265 215.607 150.241C212.451 149.004 209.817 148.037 207.704 147.339C205.916 146.748 203.88 146.146 201.596 145.532C201.452 145.491 201.308 145.45 201.163 145.409C201.113 145.398 201.062 145.387 201.01 145.376C200.308 145.19 199.583 145.004 198.835 144.816L198.928 144.233Z" fill="#8C2A00"/>
<path d="M185.296 137.288C185.924 137.829 186.147 138.714 185.771 139.45C185.325 140.325 184.215 140.638 183.309 140.175L182.535 139.815C182.356 139.732 182.279 139.52 182.362 139.341C182.445 139.163 182.656 139.085 182.835 139.168L183.621 139.534C184.199 139.829 184.876 139.638 185.137 139.126C185.398 138.613 185.156 137.953 184.578 137.657C184.402 137.568 184.333 137.353 184.422 137.178C184.462 137.1 184.527 137.043 184.602 137.011C184.607 136.864 184.704 136.729 184.852 136.683C186.256 136.244 187.526 135.487 188.501 134.094C189.688 132.418 189.914 130.455 189.517 128.47C189.454 128.157 189.38 127.866 189.298 127.601C189.246 127.431 189.217 127.349 189.158 127.187C189.09 127.003 189.184 126.798 189.369 126.73C189.553 126.662 189.758 126.756 189.826 126.941C189.89 127.114 189.922 127.206 189.979 127.391C190.067 127.679 190.148 127.992 190.215 128.33C190.647 130.49 190.399 132.647 189.083 134.504C188.057 135.971 186.745 136.796 185.296 137.288ZM177.085 144.471C176.912 144.563 176.696 144.498 176.604 144.324C176.511 144.151 176.576 143.935 176.75 143.842L181.252 141.436C181.425 141.344 181.641 141.409 181.733 141.583C181.826 141.756 181.761 141.972 181.587 142.065L177.085 144.471Z" fill="#482D1F"/>
<path d="M40.3122 280.142C40.9027 280.142 41.3814 280.621 41.3814 281.212C41.3814 281.802 40.9027 282.281 40.3122 282.281H1.58384C0.993341 282.281 0.514648 281.802 0.514648 281.212C0.514648 280.621 0.993341 280.142 1.58384 280.142H40.3122ZM117.65 282.281H93.2965C92.7263 282.281 92.2273 281.87 92.2273 281.376V281.047C92.2273 280.553 92.7025 280.142 93.2965 280.142H117.65C118.22 280.142 118.719 280.553 118.719 281.047V281.376C118.719 281.87 118.244 282.281 117.65 282.281Z" fill="#FF5645"/>
<path d="M40.5585 280.17C40.4795 280.152 40.3971 280.142 40.3123 280.142H1.75222C1.72667 280.012 1.71371 279.847 1.71742 279.635C1.74408 279.469 1.7474 279.279 1.79823 279.09C2.1032 277.954 2.47282 277.199 3.55387 276.529C4.63492 275.858 5.73848 275.259 6.88831 274.733C11.1292 272.738 12.5783 272.764 15.3668 270.934C16.5208 270.17 17.5818 269.285 18.5728 268.327C19.2335 267.689 20.5823 266.652 22.6194 265.216L43.2823 265.553L40.5585 280.17ZM117.78 280.149C117.737 280.144 117.694 280.142 117.65 280.142H93.3783L95.2988 268.015L112.311 265.709L117.78 280.149Z" fill="#474961"/>
<path d="M68.1561 188.309C62.6065 205.475 58.3911 218.531 52.5591 236.567L48.9855 251.133C48.7252 252.58 47.2342 253.553 45.6959 253.292L27.6148 250.232C26.0765 249.971 25.0352 248.571 25.3192 247.124C26.0055 243.684 26.5972 240.647 27.0942 238.085C27.9461 233.768 28.3485 231.68 28.8218 229.023C29.1058 227.41 29.3425 226.058 29.4845 225.156C34.975 195.621 40.0396 172.942 42.7849 160.606C43.9446 155.315 46.1692 145.328 53.8135 135.198C54.3104 134.558 54.7128 134.059 54.9494 133.751C55.3031 133.389 55.677 133.073 56.0627 132.798C56.0539 132.713 56.0452 132.628 56.0365 132.542C57.961 131.164 59.5809 129.525 67.2791 129.073C67.4692 129.073 67.683 129.049 67.8731 129.049C75.3336 128.788 82.2477 132.71 85.6216 138.962L91.3952 149.636C92.2268 151.157 92.8208 152.773 93.1535 154.437L112.941 248.486C113.2 249.716 112.458 250.935 111.247 251.268L92.6307 256.394C91.1101 256.798 89.5182 255.966 89.0905 254.564L87.6412 249.904C83.2219 237.424 78.8976 224.374 74.7396 210.824C72.4074 203.2 70.2165 195.692 68.1561 188.309Z" fill="#FFCB3D"/>
<path d="M87.1856 153.39C87.1856 153.39 81.6266 169.381 85.2951 169.735C85.2951 169.735 87.324 168.353 88.497 164.509L89.4548 157.461L87.1856 153.39Z" fill="#482D1F"/>
<path opacity="0.2" d="M57.1757 132.044C57.1191 132.086 57.0624 132.127 57.0055 132.167C57.7656 139.604 58.8387 146.401 59.6226 153.838C59.6352 153.882 59.6478 153.927 59.6604 153.971C59.6632 154.058 59.6685 154.137 59.6763 154.208C59.8971 156.233 62.743 167.659 68.214 188.486C61.8241 208.248 58.9012 216.751 52.5113 236.513L48.9377 251.079C48.6773 252.526 47.1864 253.498 45.648 253.237L27.567 250.177C26.0286 249.916 24.9873 248.517 25.2713 247.069C25.9576 243.63 26.5493 240.593 27.0463 238.031C27.8983 233.713 28.3006 231.626 28.7739 228.969C29.0579 227.355 29.2946 226.003 29.4366 225.102C34.9272 195.566 39.9918 172.887 42.7371 160.551C43.8967 155.261 46.1214 145.273 53.7656 135.144C54.2626 134.503 54.6649 134.005 54.9016 133.696C55.6019 132.979 56.3816 132.444 57.1757 132.044V132.044Z" fill="#8C2A00"/>
<path d="M60.8841 94.6024C61.7263 94.3595 62.6077 94.175 63.5248 94.0563L64.869 93.8911C66.5356 93.6764 68.0927 93.7599 69.5278 94.0797L69.5278 94.0797C69.6979 94.0567 69.8736 94.0352 70.0544 94.0155C72.5017 93.7546 75.8756 93.8495 79.0356 95.5335C79.4633 95.7707 80.3662 96.2451 81.4354 97.0752C81.4591 97.0752 81.4591 97.0989 81.4591 97.0989C81.6254 97.2887 83.3361 99.2099 86.52 104.641C87.304 105.97 88.2782 107.322 89.0147 108.934C89.0269 108.977 89.0297 109.021 89.0244 109.064C89.1411 109.386 89.2048 109.734 89.2048 110.097C89.2048 111.773 87.8432 113.133 86.1636 113.133C84.7337 113.133 83.5343 112.148 83.2092 110.82L83.0683 110.858C83.1345 111.107 83.1698 111.368 83.1698 111.638C83.1698 112.953 82.3329 114.072 81.162 114.495L82.0751 121.935C82.0833 122.197 82.0886 122.435 82.1204 122.694C82.2413 123.874 82.2428 125.643 81.3848 127.038C80.1894 129.001 78.4084 131.849 69.6472 133.021C60.2257 134.274 57.6439 131.962 55.9565 130.306C54.7893 129.182 54.345 127.708 54.1711 126.486C54.1394 126.227 54.0869 125.995 54.0315 125.739L51.6857 115.042C51.4155 116.443 50.1812 117.501 48.6995 117.501C47.0198 117.501 45.6582 116.141 45.6582 114.465C45.6582 113.727 45.9217 113.051 46.3598 112.525C46.5536 111.338 46.7474 110.261 46.9412 109.294C48.2955 102.795 49.8399 100.684 49.8399 100.684C50.624 99.5931 51.3843 98.8815 51.7407 98.5495C54.3543 96.0827 57.5856 95.1103 60.0091 94.7308C60.3146 94.6777 60.6072 94.6358 60.8841 94.6024Z" fill="#FF5645"/>
<path d="M22.6197 265.216L27.7809 250.259L45.8776 253.334L43.1163 266.426L22.6197 265.216ZM94.2481 255.949L109.286 251.776L112.311 265.709L95.2991 268.015L94.2481 255.949ZM60.1346 90.6679C60.0703 90.6889 60.0048 90.7101 59.9382 90.7315C57.8949 91.3956 58.0137 91.3482 57.8711 91.3956C56.3505 91.7277 55.0675 91.6091 54.8299 91.5617C52.8578 91.3008 50.7432 87.5295 50.0304 82.2403C49.9591 81.8134 49.9591 81.3864 49.9353 80.9595L50.0066 76.7139C50.0066 75.7651 50.268 74.8401 50.7432 74.0337C50.7907 73.9388 50.8382 73.8677 50.8857 73.7965C51.0521 73.5593 51.2184 73.3221 51.3847 73.1324C52.0262 72.3734 52.7865 71.8279 53.5706 71.4484C55.4238 70.6894 57.5147 70.6182 58.6789 70.7842C58.8453 70.808 59.368 70.8791 60.1045 70.974C60.7936 71.14 61.4588 71.2349 62.1479 71.2586C62.528 71.2823 62.8131 71.6144 62.8131 71.9939C62.6706 75.6624 62.5914 77.6863 62.5755 78.0658C62.5518 78.6351 64.0011 77.4017 64.6426 77.378C65.7831 77.3543 67.2087 79.2043 67.5651 80.3902C67.9452 81.6236 67.4938 82.8807 66.7335 83.6634C66.187 84.2089 65.5455 84.4461 65.1178 84.5647C64.9278 84.5647 64.7139 84.7545 64.6426 84.9916C64.6426 84.9916 64.6426 85.0154 64.6189 85.0391L66.092 87.8616C66.1157 87.9327 66.1395 87.9565 66.1395 87.9565C66.1395 87.9565 66.1175 87.9683 66.0775 87.99L66.9236 87.8141L67.6126 93.8445C67.6126 93.8445 66.0402 94.2861 64.243 94.4731C63.045 94.5977 61.8398 94.668 60.6275 94.684L60.1346 90.6679ZM45.6618 114.606C45.736 116.217 47.0678 117.501 48.6998 117.501C50.1816 117.501 51.4159 116.443 51.6861 115.042L54.0319 125.739C54.0873 125.995 54.1397 126.227 54.1715 126.486C54.292 127.333 54.5423 128.301 55.073 129.189C51.5335 134.859 46.2968 140.055 39.8284 137.13C31.6567 133.435 22.5838 126.701 12.6098 116.928C12.1196 116.661 11.5439 116.313 10.9559 115.871C9.43875 114.732 8.74914 113.617 6.48722 109.372C4.25288 105.15 3.07101 98.8731 3.42961 97.3077C3.51236 97.0705 4.31642 96.0995 5.25429 97.0008C6.27491 97.9733 9.54909 103.347 11.0111 105.838C11.0297 105.869 11.0497 105.9 11.071 105.931C10.7024 104.357 10.8424 102.882 12.3472 102.355C12.3472 102.355 14.0072 105.331 15.8751 108.645C16.2277 108.854 16.5695 109.083 16.8889 109.337C20.4751 111.101 39.0519 120.245 41.476 121.53L45.6618 114.606ZM73.312 116.104C73.5827 116.183 73.869 116.225 74.1653 116.225C75.8449 116.225 77.2065 114.866 77.2065 113.189C77.2065 112.96 77.1811 112.737 77.133 112.523L77.141 112.521C77.4852 113.82 78.6712 114.778 80.0814 114.778C81.7611 114.778 83.1227 113.419 83.1227 111.742C83.1227 111.472 83.0874 111.211 83.0212 110.962L83.1621 110.924C83.4871 112.252 84.6865 113.237 86.1164 113.237C86.6102 113.237 87.0765 113.119 87.4888 112.911C94.4825 134.653 98.4365 148.753 99.3509 155.213C99.4033 155.427 99.4422 155.658 99.4676 155.905C99.8751 159.876 98.9757 166.059 96.7691 174.456C96.7505 174.505 89.7697 178.554 84.4755 175.915L87.8254 156.776L73.312 116.104V116.104Z" fill="#DB9E75"/>
<path opacity="0.176986" d="M60.6267 94.6841C54.9546 96.4229 51.1218 100.825 50.2994 105.529C50.0723 106.799 50.1634 108.126 50.4609 109.38L51.6738 114.911C51.5035 116.426 50.2154 117.605 48.6516 117.605C46.972 117.605 45.6104 116.245 45.6104 114.569C45.6104 113.822 45.8807 113.127 46.3291 112.587C46.5642 111.036 46.6291 110.717 46.8934 109.398C48.2477 102.899 49.7921 100.788 49.7921 100.788C50.5761 99.6972 51.3684 98.9277 51.7248 98.5957C54.3384 96.129 57.3876 95.1572 59.8111 94.7777C60.0837 94.7304 60.3582 94.7013 60.6267 94.6841Z" fill="#444444"/>
<path opacity="0.2" d="M45.6618 114.606C45.736 116.217 47.0678 117.501 48.6998 117.501C50.1816 117.501 51.4159 116.443 51.6861 115.042L54.0319 125.739C54.0873 125.995 54.1397 126.227 54.1715 126.486C54.292 127.333 54.5423 128.301 55.073 129.189C51.5335 134.859 46.2968 140.055 39.8284 137.13C31.6567 133.435 22.5838 126.701 12.6098 116.928C12.1196 116.661 11.5439 116.313 10.9559 115.871C9.43875 114.732 8.74914 113.617 6.48722 109.372C4.25288 105.15 3.07101 98.8732 3.42961 97.3078C3.51236 97.0706 4.31642 96.0996 5.25428 97.0009C6.27491 97.9733 9.54909 103.347 11.0111 105.838C11.0297 105.869 11.0497 105.9 11.071 105.931C10.7024 104.357 10.8424 102.882 12.3472 102.355C12.3472 102.355 14.0072 105.331 15.8751 108.645C16.2277 108.854 16.5695 109.083 16.8888 109.337C20.4751 111.102 39.0519 120.246 41.476 121.53L45.6618 114.606Z" fill="#8C2A00"/>
<path d="M3.51113 92.0728C4.17641 91.717 4.8892 91.7407 5.10304 92.1439L15.2722 110.383C15.4861 110.787 15.1534 111.403 14.4881 111.783C13.8229 112.139 13.1101 112.115 12.8962 111.712L2.72706 93.4722C2.48946 93.0452 2.84586 92.4286 3.51113 92.0728Z" fill="#474961"/>
<path d="M64.3311 84.4108L64.4519 84.4224C64.7608 84.3512 65.7349 84.2089 66.4953 83.4262C67.2556 82.6672 67.707 81.4101 67.3031 80.1768C66.9467 78.9908 65.8062 78.0184 64.6658 78.0421C64.0242 78.0658 63.5015 78.3742 63.4302 78.4216C62.5987 78.9671 62.2185 79.7261 62.2185 79.7261L61.9825 80.2585C61.8995 80.1278 61.8196 80.0053 61.7433 79.8921C60.0801 78.0421 58.4169 76.2158 56.73 74.3657C55.7796 74.6029 54.2115 74.8164 52.4295 74.3894C51.8592 74.2471 51.3603 73.9625 50.9326 73.7253C51.0989 73.4881 51.2653 73.251 51.4316 73.0612C52.0731 72.3022 52.8334 71.7567 53.6175 71.3772C55.4707 70.6182 57.5616 70.547 58.7258 70.7131C58.8921 70.7368 59.4148 70.808 60.1514 70.9028C60.3652 70.9265 60.5791 70.9503 60.8404 70.974C61.4582 71.0214 61.9334 71.0689 62.2185 71.0926C65.83 71.3298 67.2318 70.9265 69.0375 71.9227C69.3702 72.1125 70.1305 72.5631 70.772 73.3933C71.7697 74.6957 72.0719 76.1699 72.1161 77.3941L72.1263 77.378C72.1263 77.378 73.9083 83.5448 71.5323 86.6519C70.8229 87.5797 70.3507 88.3214 70.0373 88.9054C70.5796 89.2728 71.2038 89.7188 71.865 90.2334C73.5757 91.6091 72.1976 94.3367 70.083 93.7675L67.512 93.0694L67.1986 90.2754C64.3864 88.6426 64.3874 85.2788 64.4199 84.5764C64.3904 84.5214 64.3609 84.4662 64.3311 84.4108V84.4108Z" fill="#482D1F"/>
<path d="M60.3853 92.8711L62.9073 89.9686L60.124 90.669L60.3853 92.8711Z" fill="#482D1F"/>
<path d="M51.5744 81.8608C51.6219 82.264 51.717 82.9756 51.5269 83.2839C51.218 83.782 50.3864 82.6435 50.529 81.8371C50.6003 81.505 50.7666 81.3627 50.9567 81.3627C51.2655 81.339 51.5269 81.5525 51.5744 81.8608ZM56.6828 81.4102C56.7303 81.8134 56.8253 82.5249 56.6352 82.8333C56.3264 83.3314 55.4948 82.1929 55.6373 81.3864C55.7086 81.0544 55.8749 80.9121 56.065 80.9121C56.3739 80.8884 56.6352 81.1018 56.6828 81.4102ZM52.7396 81.9106C52.7514 81.7799 52.8669 81.6834 52.9976 81.6952C53.1283 81.707 53.2247 81.8226 53.2129 81.9533L53 84.3038C53 84.3339 53.0325 84.3744 53.0419 84.3751C53.2029 84.3875 53.3016 84.3875 53.7074 84.3798C53.8992 84.3761 54.0314 84.3744 54.188 84.3744C54.3192 84.3744 54.4256 84.4809 54.4256 84.6122C54.4256 84.7434 54.3192 84.8499 54.188 84.8499C54.0351 84.8499 53.9055 84.8515 53.7164 84.8551C53.2932 84.8632 53.1879 84.8632 53.0238 84.8499C52.7441 84.8499 52.5248 84.5762 52.5258 84.2825L52.7396 81.9106ZM54.5444 86.2013C54.3068 86.2962 53.5465 86.5808 53.2614 86.2962C53.1426 86.1776 52.9287 85.7744 52.9287 85.7744C52.9287 85.7744 53.5702 85.7744 54.3305 85.6558C54.7582 85.5846 55.0671 85.4897 55.1621 85.6083C55.1859 85.6321 55.1621 85.7032 55.1621 85.7506C55.1146 85.9878 54.7107 86.1539 54.5444 86.2013Z" fill="#482D1F"/>
<path d="M60.1742 80.1396L61.6389 79.757C61.8196 79.7098 62.0007 79.8334 62.0434 80.0332C62.0861 80.233 61.9743 80.4332 61.7936 80.4804L60.4092 80.8421C60.4585 81.0711 60.4844 81.3088 60.4844 81.5525C60.4844 83.4133 58.9737 84.9214 57.1105 84.9214C55.4814 84.9214 54.1217 83.7684 53.8058 82.2348L53.0446 82.2872C52.9703 84.0822 51.4893 85.5143 49.6737 85.5143C47.8105 85.5143 46.2998 84.0062 46.2998 82.1455C46.2998 80.2848 47.8105 78.7767 49.6737 78.7767C51.3423 78.7767 52.7282 79.9863 52.9995 81.5755L53.7367 81.5247C53.7517 79.6768 55.2566 78.1837 57.1105 78.1837C58.4684 78.1837 59.6391 78.9848 60.1742 80.1396ZM52.3209 81.8722C52.1838 80.534 51.0511 79.4898 49.6737 79.4898C48.2038 79.4898 47.0126 80.679 47.0126 82.1455C47.0126 83.612 48.2038 84.8012 49.6737 84.8012C51.1435 84.8012 52.3348 83.612 52.3348 82.1455C52.3348 82.1243 52.3345 82.1032 52.334 82.0821C52.322 82.0502 52.3143 82.016 52.3119 81.9802C52.3093 81.943 52.3126 81.9066 52.3209 81.8722ZM57.1105 84.2082C58.5804 84.2082 59.7716 83.0191 59.7716 81.5525C59.7716 80.086 58.5804 78.8969 57.1105 78.8969C55.6406 78.8969 54.4494 80.086 54.4494 81.5525C54.4494 83.0191 55.6406 84.2082 57.1105 84.2082Z" fill="#482D1F"/>
<path d="M89.2493 168.047C89.2735 167.851 89.4515 167.712 89.6468 167.737C89.8422 167.761 89.9809 167.939 89.9567 168.134C89.8052 169.359 89.657 170.307 89.3037 172.415C88.9521 174.513 88.805 175.455 88.6551 176.666C88.6309 176.862 88.4529 177 88.2576 176.976C88.0623 176.952 87.9235 176.774 87.9477 176.578C88.0993 175.354 88.2474 174.405 88.6007 172.297C88.9523 170.199 89.0994 169.258 89.2493 168.047ZM93.984 166.669C94.0202 166.475 94.2065 166.348 94.3999 166.384C94.5934 166.42 94.7208 166.607 94.6846 166.8C94.4367 168.123 94.2679 169.153 93.9098 171.45C93.5507 173.754 93.381 174.789 93.1314 176.122C93.0951 176.315 92.9089 176.443 92.7155 176.406C92.522 176.37 92.3945 176.184 92.4308 175.99C92.6786 174.667 92.8475 173.637 93.2055 171.34C93.5647 169.036 93.7344 168.001 93.984 166.669ZM70.7486 113.341C70.7434 113.335 70.7384 113.33 70.7336 113.324C69.8355 112.225 69.0007 110.883 68.3308 109.351C68.2519 109.171 68.3341 108.961 68.5144 108.882C68.6947 108.803 68.9049 108.885 68.9838 109.065C69.6269 110.536 70.4273 111.822 71.2854 112.872C71.3437 112.944 71.3698 113.031 71.3654 113.116C71.4247 113.18 71.4609 113.265 71.4609 113.359C71.4609 113.435 71.4688 113.513 71.4852 113.605C71.4924 113.646 71.5012 113.689 71.5129 113.743C71.5195 113.774 71.5439 113.882 71.5446 113.886C71.7693 114.741 72.4235 115.422 73.2603 115.701C73.4471 115.763 73.5482 115.965 73.486 116.152C73.4239 116.339 73.2222 116.44 73.0354 116.378C71.9725 116.024 71.1412 115.158 70.8517 114.053C70.8528 114.058 70.8242 113.931 70.8164 113.895C70.8029 113.833 70.7923 113.781 70.7833 113.729C70.7601 113.599 70.7481 113.48 70.7481 113.359C70.7481 113.353 70.7483 113.347 70.7486 113.341Z" fill="#482D1F"/>
</svg>
